<svg xmlns="http://www.w3.org/2000/svg" xmlns:xlink="http://www.w3.org/1999/xlink" width="500" zoomAndPan="magnify" viewBox="0 0 375 374.999991" height="500" preserveAspectRatio="xMidYMid meet" version="1.0"><path fill="#d66e36" d="M 368.75 281.25 C 369.160156 281.25 369.566406 281.210938 369.96875 281.128906 C 370.371094 281.050781 370.761719 280.933594 371.140625 280.773438 C 371.519531 280.617188 371.882812 280.425781 372.222656 280.195312 C 372.5625 279.96875 372.878906 279.710938 373.167969 279.417969 C 373.460938 279.128906 373.71875 278.8125 373.945312 278.472656 C 374.175781 278.132812 374.367188 277.769531 374.523438 277.390625 C 374.683594 277.011719 374.800781 276.621094 374.878906 276.21875 C 374.960938 275.816406 375 275.410156 375 275 L 375 31.25 C 375 30.226562 374.949219 29.207031 374.847656 28.1875 C 374.746094 27.171875 374.59375 26.160156 374.394531 25.15625 C 374.191406 24.152344 373.945312 23.160156 373.644531 22.183594 C 373.347656 21.203125 373.003906 20.242188 372.613281 19.296875 C 372.21875 18.351562 371.78125 17.429688 371.300781 16.527344 C 370.816406 15.625 370.289062 14.746094 369.722656 13.898438 C 369.152344 13.046875 368.542969 12.226562 367.894531 11.433594 C 367.246094 10.644531 366.558594 9.886719 365.835938 9.164062 C 365.113281 8.441406 364.355469 7.753906 363.566406 7.105469 C 362.773438 6.457031 361.953125 5.847656 361.101562 5.277344 C 360.253906 4.710938 359.375 4.183594 358.472656 3.699219 C 357.570312 3.21875 356.648438 2.78125 355.703125 2.386719 C 354.757812 1.996094 353.796875 1.652344 352.816406 1.355469 C 351.839844 1.054688 350.847656 0.808594 349.84375 0.605469 C 348.839844 0.40625 347.828125 0.253906 346.8125 0.152344 C 345.792969 0.0507812 344.773438 0 343.75 0 L 31.25 0 C 30.226562 0 29.207031 0.0507812 28.1875 0.152344 C 27.171875 0.253906 26.160156 0.40625 25.15625 0.605469 C 24.152344 0.808594 23.160156 1.054688 22.183594 1.355469 C 21.203125 1.652344 20.242188 1.996094 19.296875 2.386719 C 18.351562 2.78125 17.429688 3.21875 16.527344 3.699219 C 15.625 4.183594 14.746094 4.710938 13.898438 5.277344 C 13.046875 5.847656 12.226562 6.457031 11.433594 7.105469 C 10.644531 7.753906 9.886719 8.441406 9.164062 9.164062 C 8.441406 9.886719 7.753906 10.644531 7.105469 11.433594 C 6.457031 12.226562 5.847656 13.046875 5.277344 13.898438 C 4.710938 14.746094 4.183594 15.625 3.699219 16.527344 C 3.21875 17.429688 2.78125 18.351562 2.386719 19.296875 C 1.996094 20.242188 1.652344 21.203125 1.355469 22.183594 C 1.054688 23.160156 0.808594 24.152344 0.605469 25.15625 C 0.40625 26.160156 0.253906 27.171875 0.152344 28.1875 C 0.0507812 29.207031 0 30.226562 0 31.25 L 0 50 C 0 50.410156 0.0390625 50.816406 0.121094 51.21875 C 0.199219 51.621094 0.316406 52.011719 0.476562 52.390625 C 0.632812 52.769531 0.824219 53.132812 1.054688 53.472656 C 1.28125 53.8125 1.539062 54.128906 1.832031 54.417969 C 2.121094 54.710938 2.4375 54.96875 2.777344 55.195312 C 3.117188 55.425781 3.480469 55.617188 3.859375 55.773438 C 4.238281 55.933594 4.628906 56.050781 5.03125 56.128906 C 5.433594 56.210938 5.839844 56.25 6.25 56.25 C 6.863281 56.25 7.476562 56.28125 8.085938 56.339844 C 8.699219 56.402344 9.304688 56.492188 9.90625 56.609375 C 10.511719 56.730469 11.105469 56.878906 11.691406 57.058594 C 12.28125 57.234375 12.859375 57.441406 13.425781 57.675781 C 13.992188 57.914062 14.546875 58.175781 15.089844 58.464844 C 15.628906 58.753906 16.15625 59.070312 16.667969 59.410156 C 17.175781 59.75 17.671875 60.117188 18.144531 60.507812 C 18.621094 60.894531 19.074219 61.308594 19.507812 61.742188 C 19.941406 62.175781 20.355469 62.628906 20.742188 63.105469 C 21.132812 63.578125 21.5 64.074219 21.839844 64.582031 C 22.179688 65.09375 22.496094 65.621094 22.785156 66.160156 C 23.074219 66.703125 23.335938 67.257812 23.574219 67.824219 C 23.808594 68.390625 24.015625 68.96875 24.191406 69.558594 C 24.371094 70.144531 24.519531 70.738281 24.640625 71.34375 C 24.757812 71.945312 24.847656 72.550781 24.910156 73.164062 C 24.96875 73.773438 25 74.386719 25 75 C 25 75.613281 24.96875 76.226562 24.910156 76.835938 C 24.847656 77.449219 24.757812 78.054688 24.640625 78.65625 C 24.519531 79.261719 24.371094 79.855469 24.191406 80.441406 C 24.015625 81.03125 23.808594 81.609375 23.574219 82.175781 C 23.335938 82.742188 23.074219 83.296875 22.785156 83.839844 C 22.496094 84.378906 22.179688 84.90625 21.839844 85.417969 C 21.5 85.925781 21.132812 86.421875 20.742188 86.894531 C 20.355469 87.371094 19.941406 87.824219 19.507812 88.257812 C 19.074219 88.691406 18.621094 89.105469 18.144531 89.492188 C 17.671875 89.882812 17.175781 90.25 16.667969 90.589844 C 16.15625 90.929688 15.628906 91.246094 15.089844 91.535156 C 14.546875 91.824219 13.992188 92.085938 13.425781 92.324219 C 12.859375 92.558594 12.28125 92.765625 11.691406 92.941406 C 11.105469 93.121094 10.511719 93.269531 9.90625 93.390625 C 9.304688 93.507812 8.699219 93.597656 8.085938 93.660156 C 7.476562 93.71875 6.863281 93.75 6.25 93.75 C 5.839844 93.75 5.433594 93.789062 5.03125 93.871094 C 4.628906 93.949219 4.238281 94.066406 3.859375 94.226562 C 3.480469 94.382812 3.117188 94.574219 2.777344 94.804688 C 2.4375 95.03125 2.121094 95.289062 1.832031 95.582031 C 1.539062 95.871094 1.28125 96.1875 1.054688 96.527344 C 0.824219 96.867188 0.632812 97.230469 0.476562 97.609375 C 0.316406 97.988281 0.199219 98.378906 0.121094 98.78125 C 0.0390625 99.183594 0 99.589844 0 100 L 0 343.75 C 0 344.773438 0.0507812 345.792969 0.152344 346.8125 C 0.253906 347.828125 0.40625 348.839844 0.605469 349.84375 C 0.808594 350.847656 1.054688 351.839844 1.355469 352.816406 C 1.652344 353.796875 1.996094 354.757812 2.386719 355.703125 C 2.78125 356.648438 3.21875 357.570312 3.699219 358.472656 C 4.183594 359.375 4.710938 360.253906 5.277344 361.101562 C 5.847656 361.953125 6.457031 362.773438 7.105469 363.566406 C 7.753906 364.355469 8.441406 365.113281 9.164062 365.835938 C 9.886719 366.558594 10.644531 367.246094 11.433594 367.894531 C 12.226562 368.542969 13.046875 369.152344 13.898438 369.722656 C 14.746094 370.289062 15.625 370.816406 16.527344 371.300781 C 17.429688 371.78125 18.351562 372.21875 19.296875 372.613281 C 20.242188 373.003906 21.203125 373.347656 22.183594 373.644531 C 23.160156 373.945312 24.152344 374.191406 25.15625 374.394531 C 26.160156 374.59375 27.171875 374.746094 28.1875 374.847656 C 29.207031 374.949219 30.226562 375 31.25 375 L 343.75 375 C 344.773438 375 345.792969 374.949219 346.8125 374.847656 C 347.828125 374.746094 348.839844 374.59375 349.84375 374.394531 C 350.847656 374.191406 351.839844 373.945312 352.816406 373.644531 C 353.796875 373.347656 354.757812 373.003906 355.703125 372.613281 C 356.648438 372.21875 357.570312 371.78125 358.472656 371.300781 C 359.375 370.816406 360.253906 370.289062 361.101562 369.722656 C 361.953125 369.152344 362.773438 368.542969 363.566406 367.894531 C 364.355469 367.246094 365.113281 366.558594 365.835938 365.835938 C 366.558594 365.113281 367.246094 364.355469 367.894531 363.566406 C 368.542969 362.773438 369.152344 361.953125 369.722656 361.101562 C 370.289062 360.253906 370.816406 359.375 371.300781 358.472656 C 371.78125 357.570312 372.21875 356.648438 372.613281 355.703125 C 373.003906 354.757812 373.347656 353.796875 373.644531 352.816406 C 373.945312 351.839844 374.191406 350.847656 374.394531 349.84375 C 374.59375 348.839844 374.746094 347.828125 374.847656 346.8125 C 374.949219 345.792969 375 344.773438 375 343.75 L 375 325 C 375 324.589844 374.960938 324.183594 374.878906 323.78125 C 374.800781 323.378906 374.683594 322.988281 374.523438 322.609375 C 374.367188 322.230469 374.175781 321.867188 373.945312 321.527344 C 373.71875 321.1875 373.460938 320.871094 373.167969 320.578125 C 372.878906 320.289062 372.5625 320.03125 372.222656 319.804688 C 371.882812 319.574219 371.519531 319.382812 371.140625 319.226562 C 370.761719 319.066406 370.371094 318.949219 369.96875 318.871094 C 369.566406 318.789062 369.160156 318.75 368.75 318.75 C 368.136719 318.75 367.523438 318.71875 366.914062 318.660156 C 366.300781 318.597656 365.695312 318.507812 365.09375 318.390625 C 364.488281 318.269531 363.894531 318.121094 363.308594 317.941406 C 362.71875 317.765625 362.140625 317.558594 361.574219 317.324219 C 361.007812 317.085938 360.453125 316.824219 359.910156 316.535156 C 359.371094 316.246094 358.84375 315.929688 358.332031 315.589844 C 357.824219 315.25 357.328125 314.882812 356.855469 314.492188 C 356.378906 314.105469 355.925781 313.691406 355.492188 313.257812 C 355.058594 312.824219 354.644531 312.371094 354.257812 311.894531 C 353.867188 311.421875 353.5 310.925781 353.160156 310.417969 C 352.820312 309.90625 352.503906 309.378906 352.214844 308.839844 C 351.925781 308.296875 351.664062 307.742188 351.425781 307.175781 C 351.191406 306.609375 350.984375 306.03125 350.808594 305.441406 C 350.628906 304.855469 350.480469 304.261719 350.359375 303.65625 C 350.242188 303.054688 350.152344 302.449219 350.089844 301.835938 C 350.03125 301.226562 350 300.613281 350 300 C 350 299.386719 350.03125 298.773438 350.089844 298.164062 C 350.152344 297.550781 350.242188 296.945312 350.359375 296.34375 C 350.480469 295.738281 350.628906 295.144531 350.808594 294.558594 C 350.984375 293.96875 351.191406 293.390625 351.425781 292.824219 C 351.664062 292.257812 351.925781 291.703125 352.214844 291.160156 C 352.503906 290.621094 352.820312 290.09375 353.160156 289.582031 C 353.5 289.074219 353.867188 288.578125 354.257812 288.105469 C 354.644531 287.628906 355.058594 287.175781 355.492188 286.742188 C 355.925781 286.308594 356.378906 285.894531 356.855469 285.507812 C 357.328125 285.117188 357.824219 284.75 358.332031 284.410156 C 358.84375 284.070312 359.371094 283.753906 359.910156 283.464844 C 360.453125 283.175781 361.007812 282.914062 361.574219 282.675781 C 362.140625 282.441406 362.71875 282.234375 363.308594 282.058594 C 363.894531 281.878906 364.488281 281.730469 365.09375 281.609375 C 365.695312 281.492188 366.300781 281.402344 366.914062 281.339844 C 367.523438 281.28125 368.136719 281.25 368.75 281.25 Z M 337.5 12.5 L 343.75 12.5 C 344.363281 12.5 344.976562 12.53125 345.585938 12.59375 C 346.199219 12.652344 346.804688 12.742188 347.40625 12.863281 C 348.007812 12.984375 348.601562 13.132812 349.191406 13.3125 C 349.777344 13.492188 350.355469 13.699219 350.921875 13.933594 C 351.488281 14.167969 352.042969 14.429688 352.585938 14.71875 C 353.125 15.007812 353.652344 15.324219 354.160156 15.667969 C 354.671875 16.007812 355.164062 16.371094 355.640625 16.761719 C 356.113281 17.152344 356.566406 17.5625 357.003906 17.996094 C 357.4375 18.433594 357.847656 18.886719 358.238281 19.359375 C 358.628906 19.835938 358.992188 20.328125 359.332031 20.839844 C 359.675781 21.347656 359.992188 21.875 360.28125 22.414062 C 360.570312 22.957031 360.832031 23.511719 361.066406 24.078125 C 361.300781 24.644531 361.507812 25.222656 361.6875 25.808594 C 361.867188 26.398438 362.015625 26.992188 362.136719 27.59375 C 362.257812 28.195312 362.347656 28.800781 362.40625 29.414062 C 362.46875 30.023438 362.5 30.636719 362.5 31.25 L 362.5 37.5 L 352.585938 37.5 L 337.5 22.414062 Z M 312.5 12.5 L 325 12.5 L 325 25 C 325 25.828125 325.160156 26.625 325.476562 27.390625 C 325.792969 28.15625 326.246094 28.832031 326.832031 29.417969 L 345.582031 48.167969 C 346.167969 48.753906 346.84375 49.207031 347.609375 49.523438 C 348.375 49.839844 349.171875 50 350 50 L 362.5 50 L 362.5 62.5 L 340.085938 62.5 L 312.5 34.914062 Z M 243.75 50 L 243.75 12.5 L 256.25 12.5 L 256.25 53.9375 L 220.257812 95.933594 C 219.25 97.101562 218.75 98.457031 218.75 100 L 218.75 131.25 L 206.25 131.25 L 206.25 96.0625 L 242.242188 54.066406 C 243.25 52.898438 243.75 51.542969 243.75 50 Z M 218.75 43.75 L 218.75 12.5 L 231.25 12.5 L 231.25 47.6875 L 195.257812 89.683594 C 194.25 90.851562 193.75 92.207031 193.75 93.75 L 193.75 131.25 L 181.25 131.25 L 181.25 89.8125 L 217.242188 47.816406 C 218.25 46.648438 218.75 45.292969 218.75 43.75 Z M 193.75 150 C 193.75 150.410156 193.710938 150.816406 193.628906 151.21875 C 193.550781 151.621094 193.429688 152.011719 193.273438 152.390625 C 193.117188 152.769531 192.925781 153.132812 192.695312 153.472656 C 192.46875 153.8125 192.210938 154.128906 191.917969 154.417969 C 191.628906 154.710938 191.3125 154.96875 190.972656 155.195312 C 190.632812 155.425781 190.269531 155.617188 189.890625 155.773438 C 189.511719 155.929688 189.121094 156.050781 188.71875 156.128906 C 188.316406 156.210938 187.910156 156.25 187.5 156.25 C 187.089844 156.25 186.683594 156.210938 186.28125 156.128906 C 185.878906 156.050781 185.488281 155.929688 185.109375 155.773438 C 184.730469 155.617188 184.367188 155.425781 184.027344 155.195312 C 183.6875 154.96875 183.371094 154.710938 183.082031 154.417969 C 182.789062 154.128906 182.53125 153.8125 182.304688 153.472656 C 182.074219 153.132812 181.882812 152.769531 181.726562 152.390625 C 181.570312 152.011719 181.449219 151.621094 181.371094 151.21875 C 181.289062 150.816406 181.25 150.410156 181.25 150 C 181.25 149.589844 181.289062 149.183594 181.371094 148.78125 C 181.449219 148.378906 181.570312 147.988281 181.726562 147.609375 C 181.882812 147.230469 182.074219 146.867188 182.304688 146.527344 C 182.53125 146.1875 182.789062 145.871094 183.082031 145.582031 C 183.371094 145.289062 183.6875 145.03125 184.027344 144.804688 C 184.367188 144.574219 184.730469 144.382812 185.109375 144.226562 C 185.488281 144.070312 185.878906 143.949219 186.28125 143.871094 C 186.683594 143.789062 187.089844 143.75 187.5 143.75 C 187.910156 143.75 188.316406 143.789062 188.71875 143.871094 C 189.121094 143.949219 189.511719 144.070312 189.890625 144.226562 C 190.269531 144.382812 190.632812 144.574219 190.972656 144.804688 C 191.3125 145.03125 191.628906 145.289062 191.917969 145.582031 C 192.210938 145.871094 192.46875 146.1875 192.695312 146.527344 C 192.925781 146.867188 193.117188 147.230469 193.273438 147.609375 C 193.429688 147.988281 193.550781 148.378906 193.628906 148.78125 C 193.710938 149.183594 193.75 149.589844 193.75 150 Z M 37.5 362.5 L 31.25 362.5 C 30.636719 362.5 30.023438 362.46875 29.414062 362.40625 C 28.800781 362.347656 28.195312 362.257812 27.59375 362.136719 C 26.992188 362.015625 26.398438 361.867188 25.808594 361.6875 C 25.222656 361.507812 24.644531 361.300781 24.078125 361.066406 C 23.511719 360.832031 22.957031 360.570312 22.414062 360.28125 C 21.875 359.992188 21.347656 359.675781 20.839844 359.332031 C 20.328125 358.992188 19.835938 358.628906 19.359375 358.238281 C 18.886719 357.847656 18.433594 357.4375 17.996094 357.003906 C 17.5625 356.566406 17.152344 356.113281 16.761719 355.640625 C 16.371094 355.164062 16.007812 354.671875 15.667969 354.160156 C 15.324219 353.652344 15.007812 353.125 14.71875 352.585938 C 14.429688 352.042969 14.167969 351.488281 13.933594 350.921875 C 13.699219 350.355469 13.492188 349.777344 13.3125 349.191406 C 13.132812 348.601562 12.984375 348.007812 12.863281 347.40625 C 12.742188 346.804688 12.652344 346.199219 12.59375 345.585938 C 12.53125 344.976562 12.5 344.363281 12.5 343.75 L 12.5 337.5 L 22.414062 337.5 L 37.5 352.585938 Z M 62.5 362.5 L 50 362.5 L 50 350 C 50 349.171875 49.839844 348.375 49.523438 347.609375 C 49.207031 346.84375 48.753906 346.167969 48.167969 345.582031 L 29.417969 326.832031 C 28.832031 326.246094 28.15625 325.792969 27.390625 325.476562 C 26.625 325.160156 25.828125 325 25 325 L 12.5 325 L 12.5 312.5 L 34.914062 312.5 L 62.5 340.085938 Z M 106.25 318.75 L 106.25 362.5 L 75 362.5 L 75 337.5 C 75 336.671875 74.839844 335.875 74.523438 335.109375 C 74.207031 334.34375 73.753906 333.667969 73.167969 333.082031 L 41.917969 301.832031 C 41.332031 301.246094 40.65625 300.792969 39.890625 300.476562 C 39.125 300.160156 38.328125 300 37.5 300 L 12.5 300 L 12.5 105.621094 C 13.375 105.441406 14.238281 105.226562 15.09375 104.976562 C 15.949219 104.722656 16.792969 104.433594 17.625 104.109375 C 18.457031 103.785156 19.269531 103.425781 20.070312 103.03125 C 20.871094 102.636719 21.652344 102.207031 22.417969 101.746094 C 23.179688 101.285156 23.921875 100.789062 24.644531 100.265625 C 25.363281 99.738281 26.0625 99.183594 26.734375 98.601562 C 27.410156 98.015625 28.058594 97.402344 28.679688 96.761719 C 29.300781 96.121094 29.890625 95.457031 30.457031 94.765625 C 31.019531 94.074219 31.554688 93.359375 32.058594 92.625 C 32.558594 91.886719 33.03125 91.128906 33.46875 90.351562 C 33.90625 89.574219 34.3125 88.78125 34.683594 87.96875 C 35.050781 87.15625 35.386719 86.332031 35.6875 85.492188 C 35.984375 84.652344 36.25 83.800781 36.476562 82.9375 C 36.703125 82.074219 36.890625 81.203125 37.042969 80.324219 C 37.195312 79.445312 37.308594 78.558594 37.386719 77.671875 C 37.460938 76.78125 37.5 75.890625 37.5 75 C 37.5 74.109375 37.460938 73.21875 37.386719 72.328125 C 37.308594 71.441406 37.195312 70.554688 37.042969 69.675781 C 36.890625 68.796875 36.703125 67.925781 36.476562 67.0625 C 36.25 66.199219 35.984375 65.347656 35.6875 64.507812 C 35.386719 63.667969 35.050781 62.84375 34.683594 62.03125 C 34.3125 61.21875 33.90625 60.425781 33.46875 59.648438 C 33.03125 58.871094 32.558594 58.113281 32.058594 57.375 C 31.554688 56.640625 31.019531 55.925781 30.457031 55.234375 C 29.890625 54.542969 29.300781 53.878906 28.679688 53.238281 C 28.058594 52.597656 27.410156 51.984375 26.734375 51.398438 C 26.0625 50.816406 25.363281 50.261719 24.644531 49.734375 C 23.921875 49.210938 23.179688 48.714844 22.417969 48.253906 C 21.652344 47.792969 20.871094 47.363281 20.070312 46.96875 C 19.269531 46.574219 18.457031 46.214844 17.625 45.890625 C 16.792969 45.566406 15.949219 45.277344 15.09375 45.023438 C 14.238281 44.773438 13.375 44.558594 12.5 44.378906 L 12.5 31.25 C 12.5 30.636719 12.53125 30.023438 12.59375 29.414062 C 12.652344 28.800781 12.742188 28.195312 12.863281 27.59375 C 12.984375 26.992188 13.132812 26.398438 13.3125 25.808594 C 13.492188 25.222656 13.699219 24.644531 13.933594 24.078125 C 14.167969 23.511719 14.429688 22.957031 14.71875 22.414062 C 15.007812 21.875 15.324219 21.347656 15.667969 20.839844 C 16.007812 20.328125 16.371094 19.835938 16.761719 19.359375 C 17.152344 18.886719 17.5625 18.433594 17.996094 17.996094 C 18.433594 17.5625 18.886719 17.152344 19.359375 16.761719 C 19.835938 16.371094 20.328125 16.007812 20.839844 15.667969 C 21.347656 15.324219 21.875 15.007812 22.414062 14.71875 C 22.957031 14.429688 23.511719 14.167969 24.078125 13.933594 C 24.644531 13.699219 25.222656 13.492188 25.808594 13.3125 C 26.398438 13.132812 26.992188 12.984375 27.59375 12.863281 C 28.195312 12.742188 28.800781 12.652344 29.414062 12.59375 C 30.023438 12.53125 30.636719 12.5 31.25 12.5 L 206.25 12.5 L 206.25 41.4375 L 170.257812 83.433594 C 169.25 84.601562 168.75 85.957031 168.75 87.5 L 168.75 131.25 L 156.25 131.25 L 156.25 112.5 C 156.25 111.894531 156.164062 111.304688 155.992188 110.722656 C 155.820312 110.144531 155.570312 109.601562 155.242188 109.09375 C 154.910156 108.585938 154.515625 108.136719 154.058594 107.746094 C 153.597656 107.355469 153.089844 107.035156 152.539062 106.789062 L 100 83.4375 L 100 61.347656 C 100.6875 61.105469 101.359375 60.820312 102.015625 60.5 C 102.671875 60.179688 103.308594 59.820312 103.921875 59.421875 C 104.535156 59.027344 105.121094 58.597656 105.6875 58.132812 C 106.25 57.664062 106.785156 57.167969 107.289062 56.640625 C 107.792969 56.113281 108.269531 55.558594 108.707031 54.976562 C 109.148438 54.394531 109.554688 53.789062 109.921875 53.15625 C 110.292969 52.527344 110.625 51.878906 110.917969 51.210938 C 111.210938 50.539062 111.464844 49.855469 111.679688 49.160156 C 111.894531 48.460938 112.066406 47.75 112.195312 47.03125 C 112.328125 46.3125 112.417969 45.589844 112.464844 44.863281 C 112.507812 44.132812 112.511719 43.402344 112.476562 42.671875 C 112.4375 41.945312 112.355469 41.21875 112.230469 40.5 C 112.109375 39.78125 111.941406 39.070312 111.734375 38.367188 C 111.53125 37.667969 111.28125 36.980469 110.996094 36.308594 C 110.710938 35.636719 110.386719 34.984375 110.023438 34.351562 C 109.660156 33.71875 109.261719 33.105469 108.824219 32.519531 C 108.390625 31.933594 107.925781 31.371094 107.425781 30.839844 C 106.925781 30.308594 106.394531 29.804688 105.835938 29.335938 C 105.277344 28.863281 104.695312 28.425781 104.085938 28.023438 C 103.476562 27.621094 102.84375 27.253906 102.191406 26.925781 C 101.539062 26.597656 100.871094 26.308594 100.183594 26.058594 C 99.5 25.808594 98.800781 25.597656 98.089844 25.429688 C 97.378906 25.257812 96.660156 25.132812 95.933594 25.046875 C 95.210938 24.960938 94.480469 24.917969 93.75 24.917969 C 93.019531 24.917969 92.292969 24.960938 91.566406 25.046875 C 90.839844 25.132812 90.125 25.257812 89.414062 25.425781 C 88.703125 25.597656 88.003906 25.804688 87.316406 26.058594 C 86.632812 26.308594 85.960938 26.597656 85.308594 26.925781 C 84.65625 27.253906 84.027344 27.621094 83.417969 28.023438 C 82.808594 28.425781 82.222656 28.863281 81.664062 29.332031 C 81.105469 29.804688 80.578125 30.304688 80.078125 30.839844 C 79.578125 31.371094 79.109375 31.929688 78.675781 32.519531 C 78.242188 33.105469 77.84375 33.714844 77.480469 34.351562 C 77.117188 34.984375 76.792969 35.636719 76.503906 36.308594 C 76.21875 36.980469 75.972656 37.667969 75.765625 38.367188 C 75.558594 39.066406 75.394531 39.777344 75.269531 40.5 C 75.144531 41.21875 75.066406 41.941406 75.027344 42.671875 C 74.988281 43.402344 74.992188 44.132812 75.039062 44.859375 C 75.085938 45.589844 75.171875 46.3125 75.304688 47.03125 C 75.433594 47.75 75.605469 48.460938 75.820312 49.15625 C 76.035156 49.855469 76.289062 50.539062 76.582031 51.207031 C 76.875 51.878906 77.207031 52.527344 77.578125 53.15625 C 77.945312 53.785156 78.351562 54.394531 78.792969 54.976562 C 79.234375 55.558594 79.707031 56.113281 80.210938 56.640625 C 80.714844 57.167969 81.25 57.664062 81.8125 58.128906 C 82.378906 58.59375 82.964844 59.027344 83.578125 59.421875 C 84.191406 59.816406 84.828125 60.175781 85.484375 60.5 C 86.140625 60.820312 86.8125 61.105469 87.5 61.347656 L 87.5 87.5 C 87.5 88.105469 87.585938 88.695312 87.757812 89.277344 C 87.929688 89.855469 88.179688 90.398438 88.507812 90.90625 C 88.835938 91.414062 89.234375 91.863281 89.691406 92.253906 C 90.152344 92.644531 90.660156 92.964844 91.210938 93.210938 L 143.75 116.5625 L 143.75 131.25 L 137.5 131.25 C 137.089844 131.25 136.683594 131.289062 136.28125 131.371094 C 135.878906 131.449219 135.488281 131.566406 135.109375 131.726562 C 134.730469 131.882812 134.367188 132.074219 134.027344 132.304688 C 133.6875 132.53125 133.371094 132.789062 133.082031 133.082031 C 132.789062 133.371094 132.53125 133.6875 132.304688 134.027344 C 132.074219 134.367188 131.882812 134.730469 131.726562 135.109375 C 131.566406 135.488281 131.449219 135.878906 131.371094 136.28125 C 131.289062 136.683594 131.25 137.089844 131.25 137.5 L 131.25 143.75 L 114.390625 143.75 L 97.21875 132.300781 C 96.875 132.078125 96.515625 131.886719 96.136719 131.734375 C 95.757812 131.582031 95.371094 131.46875 94.96875 131.390625 C 94.566406 131.3125 94.164062 131.277344 93.753906 131.28125 C 93.347656 131.28125 92.941406 131.324219 92.542969 131.40625 C 92.144531 131.488281 91.753906 131.609375 91.378906 131.765625 C 91 131.921875 90.644531 132.117188 90.304688 132.34375 C 89.96875 132.570312 89.652344 132.828125 89.367188 133.121094 C 89.078125 133.410156 88.820312 133.722656 88.59375 134.0625 C 88.367188 134.402344 88.175781 134.761719 88.019531 135.136719 C 87.863281 135.515625 87.746094 135.902344 87.664062 136.304688 C 87.585938 136.703125 87.546875 137.109375 87.542969 137.515625 C 87.542969 137.925781 87.582031 138.328125 87.660156 138.730469 C 87.738281 139.128906 87.855469 139.519531 88.011719 139.894531 C 88.164062 140.273438 88.355469 140.632812 88.578125 140.972656 C 88.804688 141.3125 89.058594 141.628906 89.347656 141.921875 C 89.632812 142.210938 89.945312 142.472656 90.28125 142.699219 L 109.03125 155.199219 C 110.082031 155.898438 111.238281 156.25 112.5 156.25 L 131.25 156.25 L 131.25 168.75 L 89.582031 168.75 L 68.75 153.125 L 68.75 130.097656 C 69.4375 129.855469 70.109375 129.570312 70.765625 129.25 C 71.421875 128.929688 72.058594 128.570312 72.671875 128.171875 C 73.285156 127.777344 73.871094 127.347656 74.4375 126.882812 C 75 126.414062 75.535156 125.917969 76.039062 125.390625 C 76.542969 124.863281 77.019531 124.308594 77.457031 123.726562 C 77.898438 123.144531 78.304688 122.539062 78.671875 121.90625 C 79.042969 121.277344 79.375 120.628906 79.667969 119.960938 C 79.960938 119.289062 80.214844 118.605469 80.429688 117.910156 C 80.644531 117.210938 80.816406 116.5 80.945312 115.78125 C 81.078125 115.0625 81.167969 114.339844 81.214844 113.613281 C 81.257812 112.882812 81.261719 112.152344 81.226562 111.421875 C 81.1875 110.695312 81.105469 109.96875 80.980469 109.25 C 80.859375 108.53125 80.691406 107.820312 80.484375 107.117188 C 80.28125 106.417969 80.03125 105.730469 79.746094 105.058594 C 79.460938 104.386719 79.136719 103.734375 78.773438 103.101562 C 78.410156 102.46875 78.011719 101.855469 77.574219 101.269531 C 77.140625 100.683594 76.675781 100.121094 76.175781 99.589844 C 75.675781 99.058594 75.144531 98.554688 74.585938 98.085938 C 74.027344 97.613281 73.445312 97.175781 72.835938 96.773438 C 72.226562 96.371094 71.59375 96.003906 70.941406 95.675781 C 70.289062 95.347656 69.621094 95.058594 68.933594 94.808594 C 68.25 94.558594 67.550781 94.347656 66.839844 94.179688 C 66.128906 94.007812 65.410156 93.882812 64.683594 93.796875 C 63.960938 93.710938 63.230469 93.667969 62.5 93.667969 C 61.769531 93.667969 61.042969 93.710938 60.316406 93.796875 C 59.589844 93.882812 58.875 94.007812 58.164062 94.175781 C 57.453125 94.347656 56.753906 94.554688 56.066406 94.808594 C 55.382812 95.058594 54.710938 95.347656 54.058594 95.675781 C 53.40625 96.003906 52.777344 96.371094 52.167969 96.773438 C 51.558594 97.175781 50.972656 97.613281 50.414062 98.082031 C 49.855469 98.554688 49.328125 99.054688 48.828125 99.589844 C 48.328125 100.121094 47.859375 100.679688 47.425781 101.269531 C 46.992188 101.855469 46.59375 102.464844 46.230469 103.101562 C 45.867188 103.734375 45.542969 104.386719 45.253906 105.058594 C 44.96875 105.730469 44.722656 106.417969 44.515625 107.117188 C 44.308594 107.816406 44.144531 108.527344 44.019531 109.25 C 43.894531 109.96875 43.816406 110.691406 43.777344 111.421875 C 43.738281 112.152344 43.742188 112.882812 43.789062 113.609375 C 43.835938 114.339844 43.921875 115.0625 44.054688 115.78125 C 44.183594 116.5 44.355469 117.210938 44.570312 117.90625 C 44.785156 118.605469 45.039062 119.289062 45.332031 119.957031 C 45.625 120.628906 45.957031 121.277344 46.328125 121.90625 C 46.695312 122.535156 47.101562 123.144531 47.542969 123.726562 C 47.984375 124.308594 48.457031 124.863281 48.960938 125.390625 C 49.464844 125.917969 50 126.414062 50.5625 126.878906 C 51.128906 127.34375 51.714844 127.777344 52.328125 128.171875 C 52.941406 128.566406 53.578125 128.925781 54.234375 129.25 C 54.890625 129.570312 55.5625 129.855469 56.25 130.097656 L 56.25 156.25 C 56.25 157.234375 56.46875 158.164062 56.910156 159.046875 C 57.351562 159.925781 57.964844 160.660156 58.753906 161.25 L 83.753906 180 C 84.863281 180.832031 86.113281 181.25 87.5 181.25 L 131.25 181.25 L 131.25 193.75 L 61.347656 193.75 C 61.105469 193.0625 60.820312 192.390625 60.5 191.734375 C 60.179688 191.078125 59.820312 190.441406 59.421875 189.828125 C 59.027344 189.214844 58.597656 188.628906 58.128906 188.0625 C 57.664062 187.5 57.167969 186.964844 56.640625 186.460938 C 56.113281 185.957031 55.558594 185.484375 54.976562 185.042969 C 54.394531 184.601562 53.789062 184.195312 53.15625 183.828125 C 52.527344 183.457031 51.878906 183.125 51.210938 182.832031 C 50.539062 182.539062 49.855469 182.285156 49.160156 182.070312 C 48.460938 181.855469 47.75 181.683594 47.03125 181.554688 C 46.3125 181.421875 45.589844 181.335938 44.863281 181.289062 C 44.132812 181.242188 43.402344 181.238281 42.675781 181.277344 C 41.945312 181.316406 41.21875 181.398438 40.5 181.519531 C 39.78125 181.644531 39.070312 181.808594 38.367188 182.015625 C 37.667969 182.222656 36.980469 182.46875 36.308594 182.753906 C 35.636719 183.042969 34.984375 183.367188 34.351562 183.730469 C 33.71875 184.09375 33.109375 184.492188 32.519531 184.925781 C 31.933594 185.359375 31.371094 185.828125 30.839844 186.328125 C 30.308594 186.828125 29.804688 187.355469 29.335938 187.914062 C 28.863281 188.472656 28.425781 189.058594 28.023438 189.667969 C 27.621094 190.277344 27.257812 190.90625 26.929688 191.558594 C 26.597656 192.210938 26.308594 192.878906 26.058594 193.566406 C 25.808594 194.253906 25.597656 194.953125 25.429688 195.660156 C 25.261719 196.371094 25.132812 197.089844 25.046875 197.816406 C 24.964844 198.542969 24.921875 199.269531 24.921875 200 C 24.921875 200.730469 24.964844 201.457031 25.046875 202.183594 C 25.132812 202.910156 25.261719 203.628906 25.429688 204.339844 C 25.597656 205.046875 25.808594 205.746094 26.058594 206.433594 C 26.308594 207.121094 26.597656 207.789062 26.929688 208.441406 C 27.257812 209.09375 27.621094 209.722656 28.023438 210.332031 C 28.425781 210.941406 28.863281 211.527344 29.335938 212.085938 C 29.804688 212.644531 30.308594 213.171875 30.839844 213.671875 C 31.371094 214.171875 31.933594 214.640625 32.519531 215.074219 C 33.109375 215.507812 33.71875 215.90625 34.351562 216.269531 C 34.984375 216.632812 35.636719 216.957031 36.308594 217.246094 C 36.980469 217.53125 37.667969 217.777344 38.367188 217.984375 C 39.070312 218.191406 39.78125 218.355469 40.5 218.480469 C 41.21875 218.601562 41.945312 218.683594 42.675781 218.722656 C 43.402344 218.761719 44.132812 218.757812 44.863281 218.710938 C 45.589844 218.664062 46.3125 218.578125 47.03125 218.445312 C 47.75 218.316406 48.460938 218.144531 49.160156 217.929688 C 49.855469 217.714844 50.539062 217.460938 51.210938 217.167969 C 51.878906 216.875 52.527344 216.542969 53.15625 216.171875 C 53.789062 215.804688 54.394531 215.398438 54.976562 214.957031 C 55.558594 214.515625 56.113281 214.042969 56.640625 213.539062 C 57.167969 213.035156 57.664062 212.5 58.128906 211.9375 C 58.597656 211.371094 59.027344 210.785156 59.421875 210.171875 C 59.820312 209.558594 60.179688 208.921875 60.5 208.265625 C 60.820312 207.609375 61.105469 206.9375 61.347656 206.25 L 131.25 206.25 L 131.25 218.75 L 100 218.75 C 98.613281 218.75 97.363281 219.167969 96.253906 220 L 71.253906 238.75 C 70.464844 239.339844 69.851562 240.074219 69.410156 240.953125 C 68.96875 241.835938 68.75 242.765625 68.75 243.75 L 68.75 269.902344 C 68.0625 270.144531 67.390625 270.429688 66.734375 270.75 C 66.078125 271.070312 65.441406 271.429688 64.828125 271.828125 C 64.214844 272.222656 63.628906 272.652344 63.0625 273.117188 C 62.5 273.585938 61.964844 274.082031 61.460938 274.609375 C 60.957031 275.136719 60.484375 275.691406 60.042969 276.273438 C 59.601562 276.855469 59.195312 277.460938 58.828125 278.09375 C 58.457031 278.722656 58.125 279.371094 57.832031 280.039062 C 57.539062 280.710938 57.285156 281.394531 57.070312 282.089844 C 56.855469 282.789062 56.683594 283.5 56.554688 284.21875 C 56.421875 284.9375 56.335938 285.660156 56.289062 286.386719 C 56.242188 287.117188 56.238281 287.847656 56.277344 288.574219 C 56.316406 289.304688 56.398438 290.03125 56.519531 290.75 C 56.644531 291.46875 56.808594 292.179688 57.015625 292.878906 C 57.222656 293.582031 57.46875 294.269531 57.753906 294.941406 C 58.042969 295.613281 58.367188 296.265625 58.730469 296.898438 C 59.09375 297.53125 59.492188 298.140625 59.925781 298.730469 C 60.359375 299.316406 60.828125 299.875 61.328125 300.410156 C 61.828125 300.941406 62.355469 301.445312 62.914062 301.914062 C 63.472656 302.386719 64.058594 302.824219 64.667969 303.226562 C 65.277344 303.628906 65.90625 303.992188 66.558594 304.320312 C 67.210938 304.652344 67.878906 304.941406 68.566406 305.191406 C 69.253906 305.441406 69.953125 305.652344 70.660156 305.820312 C 71.371094 305.988281 72.089844 306.117188 72.816406 306.203125 C 73.542969 306.285156 74.269531 306.328125 75 306.328125 C 75.730469 306.328125 76.457031 306.285156 77.183594 306.203125 C 77.910156 306.117188 78.628906 305.988281 79.339844 305.820312 C 80.046875 305.652344 80.746094 305.441406 81.433594 305.191406 C 82.121094 304.941406 82.789062 304.652344 83.441406 304.320312 C 84.09375 303.992188 84.722656 303.628906 85.332031 303.226562 C 85.941406 302.824219 86.527344 302.386719 87.085938 301.914062 C 87.644531 301.445312 88.171875 300.941406 88.671875 300.410156 C 89.171875 299.875 89.640625 299.316406 90.074219 298.730469 C 90.507812 298.140625 90.90625 297.53125 91.269531 296.898438 C 91.632812 296.265625 91.957031 295.613281 92.246094 294.941406 C 92.53125 294.269531 92.777344 293.582031 92.984375 292.878906 C 93.191406 292.179688 93.355469 291.46875 93.480469 290.75 C 93.601562 290.03125 93.683594 289.304688 93.722656 288.574219 C 93.761719 287.847656 93.757812 287.117188 93.710938 286.386719 C 93.664062 285.660156 93.578125 284.933594 93.445312 284.21875 C 93.316406 283.5 93.144531 282.789062 92.929688 282.089844 C 92.714844 281.394531 92.460938 280.710938 92.167969 280.039062 C 91.875 279.371094 91.542969 278.722656 91.171875 278.09375 C 90.804688 277.460938 90.398438 276.855469 89.957031 276.273438 C 89.515625 275.691406 89.042969 275.136719 88.539062 274.609375 C 88.035156 274.082031 87.5 273.585938 86.9375 273.117188 C 86.371094 272.652344 85.785156 272.222656 85.171875 271.828125 C 84.558594 271.429688 83.921875 271.070312 83.265625 270.75 C 82.609375 270.429688 81.9375 270.144531 81.25 269.902344 L 81.25 246.875 L 102.082031 231.25 L 131.25 231.25 L 131.25 237.5 C 131.25 237.910156 131.289062 238.316406 131.371094 238.71875 C 131.449219 239.121094 131.566406 239.511719 131.726562 239.890625 C 131.882812 240.269531 132.074219 240.632812 132.304688 240.972656 C 132.53125 241.3125 132.789062 241.628906 133.082031 241.917969 C 133.371094 242.210938 133.6875 242.46875 134.027344 242.695312 C 134.367188 242.925781 134.730469 243.117188 135.109375 243.273438 C 135.488281 243.429688 135.878906 243.550781 136.28125 243.628906 C 136.683594 243.710938 137.089844 243.75 137.5 243.75 L 143.75 243.75 L 143.75 272.6875 L 107.757812 314.683594 C 106.75 315.851562 106.25 317.207031 106.25 318.75 Z M 168.75 150 C 168.75 150.410156 168.710938 150.816406 168.628906 151.21875 C 168.550781 151.621094 168.433594 152.011719 168.273438 152.390625 C 168.117188 152.769531 167.925781 153.132812 167.695312 153.472656 C 167.46875 153.8125 167.210938 154.128906 166.917969 154.417969 C 166.628906 154.710938 166.3125 154.96875 165.972656 155.195312 C 165.632812 155.425781 165.269531 155.617188 164.890625 155.773438 C 164.511719 155.933594 164.121094 156.050781 163.71875 156.128906 C 163.316406 156.210938 162.910156 156.25 162.5 156.25 L 150 156.25 C 149.589844 156.25 149.183594 156.210938 148.78125 156.128906 C 148.378906 156.050781 147.988281 155.929688 147.609375 155.773438 C 147.230469 155.617188 146.867188 155.425781 146.527344 155.195312 C 146.1875 154.96875 145.871094 154.710938 145.582031 154.417969 C 145.289062 154.128906 145.03125 153.8125 144.804688 153.472656 C 144.574219 153.132812 144.382812 152.769531 144.226562 152.390625 C 144.070312 152.011719 143.949219 151.621094 143.871094 151.21875 C 143.789062 150.816406 143.75 150.410156 143.75 150 C 143.75 149.589844 143.789062 149.183594 143.871094 148.78125 C 143.949219 148.378906 144.070312 147.988281 144.226562 147.609375 C 144.382812 147.230469 144.574219 146.867188 144.804688 146.527344 C 145.03125 146.1875 145.289062 145.871094 145.582031 145.582031 C 145.871094 145.289062 146.1875 145.03125 146.527344 144.804688 C 146.867188 144.574219 147.230469 144.382812 147.609375 144.226562 C 147.988281 144.070312 148.378906 143.949219 148.78125 143.871094 C 149.183594 143.789062 149.589844 143.75 150 143.75 L 162.5 143.75 C 162.910156 143.75 163.316406 143.789062 163.71875 143.871094 C 164.121094 143.949219 164.511719 144.066406 164.890625 144.226562 C 165.269531 144.382812 165.632812 144.574219 165.972656 144.804688 C 166.3125 145.03125 166.628906 145.289062 166.917969 145.582031 C 167.210938 145.871094 167.46875 146.1875 167.695312 146.527344 C 167.925781 146.867188 168.117188 147.230469 168.273438 147.609375 C 168.433594 147.988281 168.550781 148.378906 168.628906 148.78125 C 168.710938 149.183594 168.75 149.589844 168.75 150 Z M 131.25 325 L 131.25 362.5 L 118.75 362.5 L 118.75 321.0625 L 154.742188 279.066406 C 155.75 277.898438 156.25 276.542969 156.25 275 L 156.25 243.75 L 168.75 243.75 L 168.75 278.9375 L 132.757812 320.933594 C 131.75 322.101562 131.25 323.457031 131.25 325 Z M 156.25 331.25 L 156.25 362.5 L 143.75 362.5 L 143.75 327.3125 L 179.742188 285.316406 C 180.75 284.148438 181.25 282.792969 181.25 281.25 L 181.25 243.75 L 193.75 243.75 L 193.75 285.1875 L 157.757812 327.183594 C 156.75 328.351562 156.25 329.707031 156.25 331.25 Z M 362.5 330.621094 L 362.5 343.75 C 362.5 344.363281 362.46875 344.976562 362.40625 345.585938 C 362.347656 346.199219 362.257812 346.804688 362.136719 347.40625 C 362.015625 348.007812 361.867188 348.601562 361.6875 349.191406 C 361.507812 349.777344 361.300781 350.355469 361.066406 350.921875 C 360.832031 351.488281 360.570312 352.042969 360.28125 352.585938 C 359.992188 353.125 359.675781 353.652344 359.332031 354.160156 C 358.992188 354.671875 358.628906 355.164062 358.238281 355.640625 C 357.847656 356.113281 357.4375 356.566406 357.003906 357.003906 C 356.566406 357.4375 356.113281 357.847656 355.640625 358.238281 C 355.164062 358.628906 354.671875 358.992188 354.160156 359.332031 C 353.652344 359.675781 353.125 359.992188 352.585938 360.28125 C 352.042969 360.570312 351.488281 360.832031 350.921875 361.066406 C 350.355469 361.300781 349.777344 361.507812 349.191406 361.6875 C 348.601562 361.867188 348.007812 362.015625 347.40625 362.136719 C 346.804688 362.257812 346.199219 362.347656 345.585938 362.40625 C 344.976562 362.46875 344.363281 362.5 343.75 362.5 L 168.75 362.5 L 168.75 333.5625 L 204.742188 291.566406 C 205.75 290.398438 206.25 289.042969 206.25 287.5 L 206.25 243.75 L 218.75 243.75 L 218.75 275 C 218.75 275.539062 218.820312 276.070312 218.957031 276.589844 C 219.09375 277.113281 219.296875 277.609375 219.5625 278.078125 C 219.828125 278.546875 220.148438 278.976562 220.523438 279.363281 C 220.902344 279.75 221.320312 280.082031 221.785156 280.359375 L 250 297.289062 L 250 313.652344 C 249.3125 313.894531 248.640625 314.179688 247.984375 314.5 C 247.328125 314.820312 246.691406 315.179688 246.078125 315.578125 C 245.464844 315.972656 244.878906 316.402344 244.3125 316.867188 C 243.75 317.335938 243.214844 317.832031 242.710938 318.359375 C 242.207031 318.886719 241.734375 319.441406 241.292969 320.023438 C 240.851562 320.605469 240.445312 321.210938 240.078125 321.84375 C 239.707031 322.472656 239.375 323.121094 239.082031 323.789062 C 238.789062 324.460938 238.535156 325.144531 238.320312 325.839844 C 238.105469 326.539062 237.933594 327.25 237.804688 327.96875 C 237.671875 328.6875 237.585938 329.410156 237.539062 330.136719 C 237.492188 330.867188 237.488281 331.597656 237.527344 332.324219 C 237.566406 333.054688 237.648438 333.78125 237.769531 334.5 C 237.894531 335.21875 238.058594 335.929688 238.265625 336.628906 C 238.472656 337.332031 238.71875 338.019531 239.003906 338.691406 C 239.292969 339.363281 239.617188 340.015625 239.980469 340.648438 C 240.34375 341.28125 240.742188 341.890625 241.175781 342.480469 C 241.609375 343.066406 242.078125 343.625 242.578125 344.160156 C 243.078125 344.691406 243.605469 345.195312 244.164062 345.664062 C 244.722656 346.136719 245.308594 346.574219 245.917969 346.976562 C 246.527344 347.378906 247.15625 347.742188 247.808594 348.070312 C 248.460938 348.402344 249.128906 348.691406 249.816406 348.941406 C 250.503906 349.191406 251.203125 349.402344 251.910156 349.570312 C 252.621094 349.738281 253.339844 349.867188 254.066406 349.953125 C 254.792969 350.035156 255.519531 350.078125 256.25 350.078125 C 256.980469 350.078125 257.707031 350.035156 258.433594 349.953125 C 259.160156 349.867188 259.878906 349.738281 260.589844 349.570312 C 261.296875 349.402344 261.996094 349.191406 262.683594 348.941406 C 263.371094 348.691406 264.039062 348.402344 264.691406 348.070312 C 265.34375 347.742188 265.972656 347.378906 266.582031 346.976562 C 267.191406 346.574219 267.777344 346.136719 268.335938 345.664062 C 268.894531 345.195312 269.421875 344.691406 269.921875 344.160156 C 270.421875 343.625 270.890625 343.066406 271.324219 342.480469 C 271.757812 341.890625 272.15625 341.28125 272.519531 340.648438 C 272.882812 340.015625 273.207031 339.363281 273.496094 338.691406 C 273.78125 338.019531 274.027344 337.332031 274.234375 336.628906 C 274.441406 335.929688 274.605469 335.21875 274.730469 334.5 C 274.851562 333.78125 274.933594 333.054688 274.972656 332.324219 C 275.011719 331.597656 275.007812 330.867188 274.960938 330.136719 C 274.914062 329.410156 274.828125 328.683594 274.695312 327.96875 C 274.566406 327.25 274.394531 326.539062 274.179688 325.839844 C 273.964844 325.144531 273.710938 324.460938 273.417969 323.789062 C 273.125 323.121094 272.792969 322.472656 272.421875 321.84375 C 272.054688 321.210938 271.648438 320.605469 271.207031 320.023438 C 270.765625 319.441406 270.292969 318.886719 269.789062 318.359375 C 269.285156 317.832031 268.75 317.335938 268.1875 316.867188 C 267.621094 316.402344 267.035156 315.972656 266.421875 315.578125 C 265.808594 315.179688 265.171875 314.820312 264.515625 314.5 C 263.859375 314.179688 263.1875 313.894531 262.5 313.652344 L 262.5 293.75 C 262.5 293.210938 262.429688 292.679688 262.292969 292.15625 C 262.15625 291.636719 261.953125 291.140625 261.6875 290.671875 C 261.421875 290.203125 261.101562 289.773438 260.726562 289.386719 C 260.347656 289 259.929688 288.667969 259.464844 288.390625 L 231.25 271.460938 L 231.25 243.75 L 237.5 243.75 C 237.910156 243.75 238.316406 243.710938 238.71875 243.628906 C 239.121094 243.550781 239.511719 243.429688 239.890625 243.273438 C 240.269531 243.117188 240.632812 242.925781 240.972656 242.695312 C 241.3125 242.46875 241.628906 242.210938 241.917969 241.917969 C 242.210938 241.628906 242.46875 241.3125 242.695312 240.972656 C 242.925781 240.632812 243.117188 240.269531 243.273438 239.890625 C 243.433594 239.511719 243.550781 239.121094 243.628906 238.71875 C 243.710938 238.316406 243.75 237.910156 243.75 237.5 L 243.75 231.25 L 284.375 231.25 L 300 252.085938 L 300 269.902344 C 299.3125 270.144531 298.640625 270.429688 297.984375 270.75 C 297.328125 271.070312 296.691406 271.429688 296.078125 271.828125 C 295.464844 272.222656 294.878906 272.652344 294.3125 273.117188 C 293.75 273.585938 293.214844 274.082031 292.710938 274.609375 C 292.207031 275.136719 291.734375 275.691406 291.292969 276.273438 C 290.851562 276.855469 290.445312 277.460938 290.078125 278.09375 C 289.707031 278.722656 289.375 279.371094 289.082031 280.039062 C 288.789062 280.710938 288.535156 281.394531 288.320312 282.089844 C 288.105469 282.789062 287.933594 283.5 287.804688 284.21875 C 287.671875 284.933594 287.585938 285.660156 287.539062 286.386719 C 287.492188 287.117188 287.488281 287.847656 287.527344 288.574219 C 287.566406 289.304688 287.644531 290.03125 287.769531 290.75 C 287.894531 291.46875 288.058594 292.179688 288.265625 292.878906 C 288.472656 293.582031 288.71875 294.269531 289.003906 294.941406 C 289.292969 295.613281 289.617188 296.265625 289.980469 296.898438 C 290.34375 297.53125 290.742188 298.140625 291.175781 298.730469 C 291.609375 299.316406 292.078125 299.875 292.578125 300.410156 C 293.078125 300.941406 293.605469 301.445312 294.164062 301.914062 C 294.722656 302.386719 295.308594 302.824219 295.917969 303.226562 C 296.527344 303.628906 297.15625 303.992188 297.808594 304.320312 C 298.460938 304.652344 299.128906 304.941406 299.816406 305.191406 C 300.503906 305.441406 301.203125 305.652344 301.910156 305.820312 C 302.621094 305.988281 303.339844 306.117188 304.066406 306.203125 C 304.792969 306.285156 305.519531 306.328125 306.25 306.328125 C 306.980469 306.328125 307.707031 306.285156 308.433594 306.203125 C 309.160156 306.117188 309.878906 305.988281 310.589844 305.820312 C 311.296875 305.652344 311.996094 305.441406 312.683594 305.191406 C 313.371094 304.941406 314.039062 304.652344 314.691406 304.320312 C 315.34375 303.992188 315.972656 303.628906 316.582031 303.226562 C 317.191406 302.824219 317.777344 302.386719 318.335938 301.914062 C 318.894531 301.445312 319.421875 300.941406 319.921875 300.410156 C 320.421875 299.875 320.890625 299.316406 321.324219 298.730469 C 321.757812 298.140625 322.15625 297.53125 322.519531 296.898438 C 322.882812 296.265625 323.207031 295.613281 323.496094 294.941406 C 323.78125 294.269531 324.027344 293.582031 324.234375 292.878906 C 324.441406 292.179688 324.605469 291.46875 324.730469 290.75 C 324.851562 290.03125 324.933594 289.304688 324.972656 288.574219 C 325.011719 287.847656 325.007812 287.117188 324.960938 286.386719 C 324.914062 285.660156 324.828125 284.933594 324.695312 284.21875 C 324.566406 283.5 324.394531 282.789062 324.179688 282.089844 C 323.964844 281.394531 323.710938 280.710938 323.417969 280.039062 C 323.125 279.371094 322.792969 278.722656 322.421875 278.09375 C 322.054688 277.460938 321.648438 276.855469 321.207031 276.273438 C 320.765625 275.691406 320.292969 275.136719 319.789062 274.609375 C 319.285156 274.082031 318.75 273.585938 318.1875 273.117188 C 317.621094 272.652344 317.035156 272.222656 316.421875 271.828125 C 315.808594 271.429688 315.171875 271.070312 314.515625 270.75 C 313.859375 270.429688 313.1875 270.144531 312.5 269.902344 L 312.5 250 C 312.5 248.609375 312.082031 247.359375 311.25 246.25 L 292.5 221.25 C 291.910156 220.460938 291.175781 219.847656 290.292969 219.410156 C 289.414062 218.96875 288.484375 218.75 287.5 218.75 L 243.75 218.75 L 243.75 206.25 L 313.652344 206.25 C 313.894531 206.9375 314.179688 207.609375 314.5 208.265625 C 314.824219 208.921875 315.179688 209.554688 315.578125 210.171875 C 315.972656 210.785156 316.40625 211.371094 316.871094 211.9375 C 317.335938 212.5 317.832031 213.035156 318.359375 213.539062 C 318.886719 214.042969 319.441406 214.515625 320.023438 214.957031 C 320.605469 215.398438 321.210938 215.800781 321.84375 216.171875 C 322.472656 216.542969 323.121094 216.875 323.789062 217.167969 C 324.460938 217.460938 325.144531 217.714844 325.84375 217.929688 C 326.539062 218.140625 327.25 218.3125 327.96875 218.445312 C 328.6875 218.578125 329.410156 218.664062 330.140625 218.710938 C 330.867188 218.757812 331.597656 218.761719 332.328125 218.722656 C 333.054688 218.683594 333.78125 218.601562 334.5 218.480469 C 335.21875 218.355469 335.929688 218.191406 336.632812 217.984375 C 337.332031 217.777344 338.019531 217.53125 338.691406 217.242188 C 339.363281 216.957031 340.015625 216.632812 340.648438 216.269531 C 341.28125 215.90625 341.890625 215.507812 342.480469 215.074219 C 343.066406 214.636719 343.625 214.171875 344.160156 213.671875 C 344.691406 213.171875 345.195312 212.640625 345.664062 212.085938 C 346.136719 211.527344 346.570312 210.941406 346.976562 210.332031 C 347.378906 209.722656 347.742188 209.089844 348.070312 208.4375 C 348.402344 207.789062 348.691406 207.117188 348.941406 206.433594 C 349.191406 205.746094 349.402344 205.046875 349.570312 204.335938 C 349.738281 203.625 349.867188 202.90625 349.953125 202.183594 C 350.035156 201.457031 350.078125 200.730469 350.078125 200 C 350.078125 199.269531 350.035156 198.539062 349.949219 197.816406 C 349.867188 197.089844 349.738281 196.371094 349.570312 195.660156 C 349.402344 194.949219 349.191406 194.25 348.941406 193.566406 C 348.691406 192.878906 348.398438 192.210938 348.070312 191.558594 C 347.742188 190.90625 347.375 190.273438 346.972656 189.664062 C 346.570312 189.054688 346.136719 188.472656 345.664062 187.914062 C 345.191406 187.355469 344.691406 186.828125 344.160156 186.328125 C 343.625 185.828125 343.066406 185.359375 342.480469 184.925781 C 341.890625 184.492188 341.28125 184.09375 340.648438 183.730469 C 340.011719 183.367188 339.359375 183.042969 338.6875 182.753906 C 338.015625 182.46875 337.332031 182.222656 336.628906 182.015625 C 335.929688 181.808594 335.21875 181.644531 334.5 181.519531 C 333.78125 181.394531 333.054688 181.316406 332.324219 181.277344 C 331.597656 181.238281 330.867188 181.242188 330.136719 181.289062 C 329.410156 181.335938 328.683594 181.421875 327.964844 181.554688 C 327.246094 181.683594 326.539062 181.855469 325.839844 182.070312 C 325.140625 182.285156 324.457031 182.539062 323.789062 182.832031 C 323.121094 183.125 322.472656 183.457031 321.839844 183.828125 C 321.210938 184.195312 320.605469 184.601562 320.023438 185.042969 C 319.441406 185.484375 318.886719 185.957031 318.359375 186.460938 C 317.832031 186.964844 317.332031 187.5 316.867188 188.0625 C 316.402344 188.628906 315.972656 189.214844 315.578125 189.828125 C 315.179688 190.441406 314.820312 191.078125 314.5 191.734375 C 314.179688 192.390625 313.894531 193.0625 313.652344 193.75 L 243.75 193.75 L 243.75 181.25 L 300 181.25 C 301.460938 181.25 302.765625 180.792969 303.90625 179.878906 L 335.15625 154.878906 C 335.898438 154.285156 336.472656 153.5625 336.882812 152.707031 C 337.296875 151.851562 337.5 150.949219 337.5 150 L 337.5 130.097656 C 338.1875 129.855469 338.859375 129.570312 339.515625 129.25 C 340.171875 128.929688 340.808594 128.570312 341.421875 128.171875 C 342.035156 127.777344 342.621094 127.347656 343.1875 126.882812 C 343.75 126.414062 344.285156 125.917969 344.789062 125.390625 C 345.292969 124.863281 345.769531 124.308594 346.207031 123.726562 C 346.648438 123.144531 347.054688 122.539062 347.421875 121.90625 C 347.792969 121.277344 348.125 120.628906 348.417969 119.960938 C 348.710938 119.289062 348.964844 118.605469 349.179688 117.910156 C 349.394531 117.210938 349.566406 116.5 349.695312 115.78125 C 349.828125 115.0625 349.917969 114.339844 349.964844 113.613281 C 350.007812 112.882812 350.011719 112.152344 349.976562 111.421875 C 349.9375 110.695312 349.855469 109.96875 349.730469 109.25 C 349.609375 108.53125 349.441406 107.820312 349.234375 107.117188 C 349.03125 106.417969 348.78125 105.730469 348.496094 105.058594 C 348.210938 104.386719 347.882812 103.734375 347.523438 103.101562 C 347.160156 102.46875 346.761719 101.855469 346.324219 101.269531 C 345.890625 100.683594 345.425781 100.121094 344.925781 99.589844 C 344.425781 99.058594 343.894531 98.554688 343.335938 98.085938 C 342.777344 97.613281 342.195312 97.175781 341.585938 96.773438 C 340.976562 96.371094 340.34375 96.003906 339.691406 95.675781 C 339.039062 95.347656 338.371094 95.058594 337.683594 94.808594 C 337 94.558594 336.300781 94.347656 335.589844 94.179688 C 334.878906 94.007812 334.160156 93.882812 333.433594 93.796875 C 332.710938 93.710938 331.980469 93.667969 331.25 93.667969 C 330.519531 93.667969 329.792969 93.710938 329.066406 93.796875 C 328.339844 93.882812 327.625 94.007812 326.914062 94.175781 C 326.203125 94.347656 325.503906 94.554688 324.816406 94.808594 C 324.132812 95.058594 323.460938 95.347656 322.808594 95.675781 C 322.15625 96.003906 321.527344 96.371094 320.917969 96.773438 C 320.308594 97.175781 319.722656 97.613281 319.164062 98.082031 C 318.605469 98.554688 318.078125 99.054688 317.578125 99.589844 C 317.078125 100.121094 316.609375 100.679688 316.175781 101.269531 C 315.742188 101.855469 315.34375 102.464844 314.980469 103.101562 C 314.617188 103.734375 314.292969 104.386719 314.003906 105.058594 C 313.71875 105.730469 313.472656 106.417969 313.265625 107.117188 C 313.058594 107.816406 312.894531 108.527344 312.769531 109.25 C 312.644531 109.96875 312.566406 110.691406 312.527344 111.421875 C 312.488281 112.152344 312.492188 112.882812 312.539062 113.609375 C 312.585938 114.339844 312.671875 115.0625 312.804688 115.78125 C 312.933594 116.5 313.105469 117.210938 313.320312 117.90625 C 313.535156 118.605469 313.789062 119.289062 314.082031 119.957031 C 314.375 120.628906 314.707031 121.277344 315.078125 121.90625 C 315.445312 122.535156 315.851562 123.144531 316.292969 123.726562 C 316.734375 124.308594 317.207031 124.863281 317.710938 125.390625 C 318.214844 125.917969 318.75 126.414062 319.3125 126.878906 C 319.878906 127.34375 320.464844 127.777344 321.078125 128.171875 C 321.691406 128.566406 322.328125 128.925781 322.984375 129.25 C 323.640625 129.570312 324.3125 129.855469 325 130.097656 L 325 146.996094 L 297.808594 168.75 L 243.75 168.75 L 243.75 156.25 L 281.25 156.25 C 281.660156 156.25 282.066406 156.210938 282.46875 156.128906 C 282.871094 156.050781 283.261719 155.933594 283.640625 155.773438 C 284.019531 155.617188 284.382812 155.425781 284.722656 155.195312 C 285.0625 154.96875 285.378906 154.710938 285.667969 154.417969 C 285.960938 154.128906 286.21875 153.8125 286.445312 153.472656 C 286.675781 153.132812 286.867188 152.769531 287.023438 152.390625 C 287.183594 152.011719 287.300781 151.621094 287.378906 151.21875 C 287.460938 150.816406 287.5 150.410156 287.5 150 L 287.5 111.347656 C 288.1875 111.105469 288.859375 110.820312 289.515625 110.5 C 290.171875 110.179688 290.808594 109.820312 291.421875 109.421875 C 292.035156 109.027344 292.621094 108.597656 293.1875 108.132812 C 293.75 107.664062 294.285156 107.167969 294.789062 106.640625 C 295.292969 106.113281 295.769531 105.558594 296.207031 104.976562 C 296.648438 104.394531 297.054688 103.789062 297.421875 103.15625 C 297.792969 102.527344 298.125 101.878906 298.417969 101.210938 C 298.710938 100.539062 298.964844 99.855469 299.179688 99.160156 C 299.394531 98.460938 299.566406 97.75 299.695312 97.03125 C 299.828125 96.3125 299.917969 95.589844 299.964844 94.863281 C 300.007812 94.132812 300.011719 93.402344 299.976562 92.671875 C 299.9375 91.945312 299.855469 91.21875 299.730469 90.5 C 299.609375 89.78125 299.441406 89.070312 299.234375 88.367188 C 299.03125 87.667969 298.78125 86.980469 298.496094 86.308594 C 298.210938 85.636719 297.882812 84.984375 297.523438 84.351562 C 297.160156 83.71875 296.761719 83.105469 296.324219 82.519531 C 295.890625 81.933594 295.425781 81.371094 294.925781 80.839844 C 294.425781 80.308594 293.894531 79.804688 293.335938 79.335938 C 292.777344 78.863281 292.195312 78.425781 291.585938 78.023438 C 290.976562 77.621094 290.34375 77.253906 289.691406 76.925781 C 289.039062 76.597656 288.371094 76.308594 287.683594 76.058594 C 287 75.808594 286.300781 75.597656 285.589844 75.429688 C 284.878906 75.257812 284.160156 75.132812 283.433594 75.046875 C 282.710938 74.960938 281.980469 74.917969 281.25 74.917969 C 280.519531 74.917969 279.792969 74.960938 279.066406 75.046875 C 278.339844 75.132812 277.625 75.257812 276.914062 75.425781 C 276.203125 75.597656 275.503906 75.804688 274.816406 76.058594 C 274.132812 76.308594 273.460938 76.597656 272.808594 76.925781 C 272.15625 77.253906 271.527344 77.621094 270.917969 78.023438 C 270.308594 78.425781 269.722656 78.863281 269.164062 79.332031 C 268.605469 79.804688 268.078125 80.304688 267.578125 80.839844 C 267.078125 81.371094 266.609375 81.929688 266.175781 82.519531 C 265.742188 83.105469 265.34375 83.714844 264.980469 84.351562 C 264.617188 84.984375 264.292969 85.636719 264.003906 86.308594 C 263.71875 86.980469 263.472656 87.667969 263.265625 88.367188 C 263.058594 89.066406 262.894531 89.777344 262.769531 90.5 C 262.644531 91.21875 262.566406 91.941406 262.527344 92.671875 C 262.488281 93.402344 262.492188 94.132812 262.539062 94.859375 C 262.585938 95.589844 262.671875 96.3125 262.804688 97.03125 C 262.933594 97.75 263.105469 98.460938 263.320312 99.15625 C 263.535156 99.855469 263.789062 100.539062 264.082031 101.207031 C 264.375 101.878906 264.707031 102.527344 265.078125 103.15625 C 265.445312 103.785156 265.851562 104.394531 266.292969 104.976562 C 266.734375 105.558594 267.207031 106.113281 267.710938 106.640625 C 268.214844 107.167969 268.75 107.664062 269.3125 108.128906 C 269.878906 108.59375 270.464844 109.027344 271.078125 109.421875 C 271.691406 109.816406 272.328125 110.175781 272.984375 110.5 C 273.640625 110.820312 274.3125 111.105469 275 111.347656 L 275 143.75 L 243.75 143.75 L 243.75 137.5 C 243.75 137.089844 243.710938 136.683594 243.628906 136.28125 C 243.550781 135.878906 243.433594 135.488281 243.273438 135.109375 C 243.117188 134.730469 242.925781 134.367188 242.695312 134.027344 C 242.46875 133.6875 242.210938 133.371094 241.917969 133.082031 C 241.628906 132.789062 241.3125 132.53125 240.972656 132.304688 C 240.632812 132.074219 240.269531 131.882812 239.890625 131.726562 C 239.511719 131.566406 239.121094 131.449219 238.71875 131.371094 C 238.316406 131.289062 237.910156 131.25 237.5 131.25 L 231.25 131.25 L 231.25 102.3125 L 267.242188 60.316406 C 268.25 59.148438 268.75 57.792969 268.75 56.25 L 268.75 12.5 L 300 12.5 L 300 37.5 C 300 38.328125 300.160156 39.125 300.476562 39.890625 C 300.792969 40.65625 301.246094 41.332031 301.832031 41.917969 L 333.082031 73.167969 C 333.667969 73.753906 334.34375 74.207031 335.109375 74.523438 C 335.875 74.839844 336.671875 75 337.5 75 L 362.5 75 L 362.5 269.378906 C 361.625 269.558594 360.761719 269.773438 359.90625 270.023438 C 359.050781 270.277344 358.207031 270.566406 357.375 270.890625 C 356.542969 271.214844 355.730469 271.574219 354.929688 271.96875 C 354.128906 272.363281 353.347656 272.792969 352.582031 273.253906 C 351.820312 273.714844 351.078125 274.210938 350.355469 274.734375 C 349.636719 275.261719 348.9375 275.816406 348.265625 276.398438 C 347.589844 276.984375 346.941406 277.597656 346.320312 278.238281 C 345.699219 278.878906 345.109375 279.542969 344.542969 280.234375 C 343.980469 280.925781 343.445312 281.640625 342.941406 282.375 C 342.441406 283.113281 341.96875 283.871094 341.53125 284.648438 C 341.09375 285.425781 340.6875 286.21875 340.316406 287.03125 C 339.949219 287.84375 339.613281 288.667969 339.3125 289.507812 C 339.015625 290.347656 338.75 291.199219 338.523438 292.0625 C 338.296875 292.925781 338.109375 293.796875 337.957031 294.675781 C 337.804688 295.554688 337.691406 296.441406 337.613281 297.328125 C 337.539062 298.21875 337.5 299.109375 337.5 300 C 337.5 300.890625 337.539062 301.78125 337.613281 302.671875 C 337.691406 303.558594 337.804688 304.445312 337.957031 305.324219 C 338.109375 306.203125 338.296875 307.074219 338.523438 307.9375 C 338.75 308.800781 339.015625 309.652344 339.3125 310.492188 C 339.613281 311.332031 339.949219 312.15625 340.316406 312.96875 C 340.6875 313.78125 341.09375 314.574219 341.53125 315.351562 C 341.96875 316.128906 342.441406 316.886719 342.941406 317.625 C 343.445312 318.359375 343.980469 319.074219 344.542969 319.765625 C 345.109375 320.457031 345.699219 321.121094 346.320312 321.761719 C 346.941406 322.402344 347.589844 323.015625 348.265625 323.601562 C 348.9375 324.183594 349.636719 324.738281 350.355469 325.265625 C 351.078125 325.789062 351.820312 326.285156 352.582031 326.746094 C 353.347656 327.207031 354.128906 327.636719 354.929688 328.03125 C 355.730469 328.425781 356.542969 328.785156 357.375 329.109375 C 358.207031 329.433594 359.050781 329.722656 359.90625 329.976562 C 360.761719 330.226562 361.625 330.441406 362.5 330.621094 Z M 362.5 330.621094 " fill-opacity="1" fill-rule="nonzero"/></svg>