<svg xmlns="http://www.w3.org/2000/svg" xmlns:xlink="http://www.w3.org/1999/xlink" width="1024" zoomAndPan="magnify" viewBox="0 0 768 767.999994" height="1024" preserveAspectRatio="xMidYMid meet" version="1.0"><path fill="#1b98e0" d="M 358.359375 37.050781 C 339.453125 43.855469 315.113281 60.40625 301.863281 75.480469 C 296.21875 81.898438 287.289062 96.277344 281.929688 107.628906 C 274.117188 124.105469 269.804688 129.546875 260.066406 135.191406 C 243.863281 144.582031 228.265625 162.25 224.621094 175.429688 C 220.441406 190.457031 220.832031 220.546875 225.445312 238.105469 C 234.347656 272.019531 217.363281 303.625 239.285156 328.597656 C 251.59375 342.613281 261.6875 346.90625 286.539062 348.667969 C 307.074219 350.132812 308.792969 350.808594 321.105469 362.273438 C 356.683594 395.402344 400.785156 400.183594 439.40625 375.199219 C 472.53125 353.785156 481.972656 324.542969 492.347656 289.726562 C 540.046875 273.597656 550.703125 272.710938 550.441406 219.757812 C 550.226562 178.425781 540.335938 157.472656 515.328125 145.46875 C 501.964844 139.046875 501.128906 137.636719 498.222656 116.566406 C 495.613281 97.894531 481.582031 71.21875 467.75 58.664062 C 448.574219 41.261719 428.589844 33.703125 398.890625 32.636719 C 365.339844 31.425781 361.0625 37.050781 358.359375 37.050781 Z M 421.566406 64.804688 C 451.378906 74.9375 471.253906 105.453125 471.253906 141.113281 C 471.253906 164.617188 467.476562 166.511719 420.480469 166.511719 C 377.800781 166.511719 354.960938 161.78125 319.191406 145.539062 C 296.867188 135.410156 296.421875 132.738281 312.898438 108.15625 C 339.929688 67.90625 381.664062 51.25 421.566406 64.804688 Z M 271.121094 241.609375 C 259.417969 241.753906 250.054688 245.628906 250.054688 204.324219 C 250.054688 182.71875 252.707031 175.324219 263.828125 165.796875 C 274.390625 156.757812 275.851562 157.59375 273.601562 171.367188 C 274.082031 171.367188 271.816406 166.085938 271.121094 241.609375 Z M 319.199219 175.027344 C 369.699219 197.347656 402.757812 194.710938 462.347656 194.902344 C 464.042969 205.941406 466.355469 214.355469 464.675781 252.714844 C 462.308594 306.742188 447.8125 337.453125 417.242188 353.222656 C 396.171875 364.085938 372.925781 363.324219 354.582031 351.171875 L 342.152344 342.9375 C 350.457031 339.460938 357.691406 335.457031 365.652344 338.476562 C 398.683594 351.019531 434.703125 314.699219 407.828125 285.398438 C 388.78125 264.640625 358.800781 271.351562 348.734375 298.652344 C 345.042969 308.648438 342.207031 311.902344 335.402344 313.832031 C 322.777344 317.460938 319.324219 314.855469 312.394531 296.492188 C 291.5 241.050781 298.65625 167.855469 302.167969 167.855469 C 302.769531 167.855469 319.484375 175.027344 319.199219 175.027344 Z M 512.046875 252.742188 C 499.621094 258.359375 496.621094 256.941406 496.492188 245.386719 C 496.136719 211.546875 488.902344 189.066406 496.292969 176.230469 C 501.679688 166.863281 508.125 168.945312 516.441406 182.71875 C 520.375 182.71875 534.527344 242.570312 512.046875 252.742188 Z M 280.4375 290.632812 C 283.75 301.984375 287.425781 313.738281 288.539062 316.707031 C 290.367188 321.582031 289.488281 321.933594 279.496094 320.324219 C 264.464844 317.898438 256 308.601562 253.804688 292.125 C 251.402344 274.023438 253.433594 269.96875 264.910156 269.96875 C 274.183594 269.96875 274.480469 270.378906 280.4375 290.632812 Z M 387.652344 304.546875 C 390.304688 308.867188 380.367188 316.535156 376.730469 312.921875 C 373.09375 309.3125 376.457031 301.308594 381.59375 301.308594 C 384.976562 301.308594 388.039062 304.546875 387.628906 304.546875 Z M 387.652344 304.546875 " fill-opacity="1" fill-rule="nonzero"/><path fill="#1b98e0" d="M 440.367188 397.203125 C 438.789062 408.402344 444.519531 411.78125 465.050781 411.859375 C 578.335938 412.15625 600.199219 528.167969 611.8125 640.867188 C 613.992188 662.03125 616.839844 660.234375 563.363281 671.480469 C 522.289062 680.09375 513.679688 684.070312 513.679688 694.085938 C 513.679688 709.988281 522.050781 710.199219 583.363281 695.683594 C 623.339844 686.222656 637.027344 679.882812 641.207031 668.960938 C 646.128906 656.015625 630.964844 545.507812 619.5625 511.199219 C 597.183594 443.929688 558.347656 401.703125 507.992188 389.894531 C 484.765625 384.441406 456.003906 383.089844 448.304688 387.078125 C 448.574219 387.078125 441.25 390.921875 440.367188 397.203125 Z M 440.367188 397.203125 " fill-opacity="1" fill-rule="nonzero"/><path fill="#1b98e0" d="M 238.4375 397.300781 C 201.21875 407.003906 175.082031 429.886719 156.1875 469.332031 C 133.4375 516.8125 122.0625 589.035156 127.136719 653.5625 C 130.667969 698.40625 130.667969 698.40625 171.722656 698.40625 C 205.21875 698.40625 210.347656 696.703125 210.347656 685.574219 C 210.347656 675.28125 204.675781 672.746094 181.71875 672.746094 C 164.429688 672.746094 159.46875 671.777344 158.054688 668.152344 C 154.617188 659.300781 156.398438 583.058594 160.652344 556.839844 C 166.484375 520.914062 180.429688 480.105469 192.949219 462.296875 C 215.382812 430.457031 239.230469 419.757812 288.917969 419.351562 C 316.46875 419.121094 321.476562 418.351562 323.96875 413.953125 C 328.242188 406.425781 324.300781 398.546875 314.582031 395.175781 C 301.503906 390.636719 259.484375 391.808594 238.394531 397.300781 Z M 238.4375 397.300781 " fill-opacity="1" fill-rule="nonzero"/><path fill="#1b98e0" d="M 299.210938 434.832031 C 232.5 438.679688 215.078125 445.84375 210.109375 471.492188 C 206.847656 488.316406 207.378906 630.617188 207.378906 630.332031 C 180.214844 630.332031 174.214844 629.472656 169.464844 636.296875 C 164.296875 643.691406 166.597656 652.292969 174.425781 654.847656 C 180.449219 656.835938 567.28125 658.863281 580.921875 653.230469 C 600.742188 645.042969 590.917969 624.660156 567.148438 624.660156 C 562.378906 624.660156 562 621.6875 561.847656 582.785156 C 561.601562 521.164062 557.6875 484.328125 549.765625 468.789062 C 537.433594 444.636719 518.535156 439.019531 434.804688 434.59375 C 343.664062 429.78125 312.535156 434.832031 299.210938 434.832031 Z M 506.371094 471.757812 C 526.90625 476.886719 528.160156 481.210938 531.546875 557.390625 C 533.3125 596.828125 533.441406 622.898438 531.871094 624.382812 C 528.445312 627.628906 235.15625 628.976562 235.441406 628.976562 C 235.539062 603.796875 235.535156 493.457031 237.707031 482.542969 C 239.941406 471.378906 244.894531 469.101562 273.253906 466.15625 C 311.78125 462.195312 462.488281 460.792969 506.371094 471.757812 Z M 506.371094 471.757812 " fill-opacity="1" fill-rule="nonzero"/><path fill="#1b98e0" d="M 370.515625 514.710938 C 359.140625 526.089844 357.816406 528.738281 357.816406 540.664062 C 357.816406 551.742188 359.3125 555.535156 366.996094 563.894531 C 391.277344 590.328125 434.253906 576.863281 434.253906 542.824219 C 434.253906 519.683594 421.824219 506.535156 397.246094 503.671875 C 383.472656 502.070312 382.957031 502.28125 370.507812 514.730469 Z M 405.34375 541.453125 C 406.527344 549.828125 395.902344 552.9375 388.613281 546.34375 C 384.289062 542.433594 383.882812 540.644531 386.585938 537.40625 C 391.574219 531.441406 404.300781 534.164062 405.34375 541.453125 Z M 405.34375 541.453125 " fill-opacity="1" fill-rule="nonzero"/></svg>