<svg xmlns="http://www.w3.org/2000/svg" xmlns:xlink="http://www.w3.org/1999/xlink" width="500" zoomAndPan="magnify" viewBox="0 0 375 374.999991" height="500" preserveAspectRatio="xMidYMid meet" version="1.0"><path fill="#d66e36" d="M 368.75 200 L 356.25 200 L 356.25 123.90625 C 363.515625 121.328125 368.75 114.375 368.75 106.25 C 368.75 95.9375 360.3125 87.5 350 87.5 L 350 58.828125 C 350 51.484375 347.109375 44.53125 341.953125 39.296875 C 336.71875 34.0625 329.84375 31.25 322.421875 31.25 L 268.75 31.25 L 268.75 43.75 L 322.421875 43.75 C 326.484375 43.75 330.234375 45.3125 333.125 48.203125 C 335.9375 51.015625 337.578125 54.84375 337.578125 58.90625 L 337.578125 87.5 L 312.578125 87.5 L 312.578125 62.5 C 312.578125 59.0625 309.765625 56.25 306.328125 56.25 L 287.578125 56.25 L 287.578125 68.75 L 300.078125 68.75 L 300.078125 87.5 C 289.765625 87.5 281.328125 95.9375 281.328125 106.25 C 281.328125 114.375 286.5625 121.328125 293.828125 123.90625 L 293.828125 200 L 262.578125 200 L 262.578125 98.90625 C 269.84375 96.328125 275.078125 89.375 275.078125 81.25 C 275.078125 70.9375 266.640625 62.5 256.328125 62.5 L 256.328125 27.578125 C 256.328125 20.234375 253.4375 13.28125 248.28125 8.046875 C 243.046875 2.8125 236.171875 0 228.75 0 L 81.25 0 L 81.25 12.5 L 228.671875 12.5 C 232.734375 12.5 236.484375 14.0625 239.375 16.953125 C 242.1875 19.765625 243.828125 23.59375 243.828125 27.65625 L 243.828125 62.5 L 218.828125 62.5 L 218.828125 37.5 C 218.828125 34.0625 216.015625 31.25 212.578125 31.25 L 118.75 31.25 L 118.75 43.75 L 206.25 43.75 L 206.25 62.5 C 195.9375 62.5 187.5 70.9375 187.5 81.25 C 187.5 89.375 192.734375 96.328125 200 98.90625 L 200 200 L 175 200 L 175 143.75 C 175 141.71875 173.984375 139.765625 172.265625 138.59375 C 170.546875 137.421875 168.4375 137.1875 166.484375 137.890625 L 3.984375 200.390625 C 1.5625 201.328125 0 203.671875 0 206.25 L 0 256.25 C 0 259.6875 2.8125 262.5 6.25 262.5 L 25 262.5 L 25 368.75 C 25 372.1875 27.8125 375 31.25 375 L 368.75 375 C 372.1875 375 375 372.1875 375 368.75 L 375 206.25 C 375 202.8125 372.1875 200 368.75 200 Z M 300 100 L 350 100 C 353.4375 100 356.25 102.8125 356.25 106.25 C 356.25 109.6875 353.4375 112.5 350 112.5 L 300 112.5 C 296.5625 112.5 293.75 109.6875 293.75 106.25 C 293.75 102.8125 296.5625 100 300 100 Z M 306.25 125 L 343.75 125 L 343.75 200 L 306.25 200 Z M 206.25 75 L 256.25 75 C 259.6875 75 262.5 77.8125 262.5 81.25 C 262.5 84.6875 259.6875 87.5 256.25 87.5 L 206.25 87.5 C 202.8125 87.5 200 84.6875 200 81.25 C 200 77.8125 202.8125 75 206.25 75 Z M 212.5 100 L 250 100 L 250 200 L 212.5 200 Z M 162.5 250 L 143.75 250 L 143.75 160.078125 L 162.5 152.890625 Z M 50 250 L 50 196.09375 L 68.75 188.90625 L 68.75 250 Z M 81.25 184.0625 L 100 176.875 L 100 237.5 L 112.5 237.5 L 112.5 172.109375 L 131.25 164.921875 L 131.25 250.078125 L 81.25 250.078125 Z M 12.5 250 L 12.5 210.546875 L 37.5 200.9375 L 37.5 250 Z M 262.5 337.5 L 275 337.5 L 275 362.5 L 262.5 362.5 Z M 300 362.5 L 287.5 362.5 L 287.5 318.75 C 287.5 315.3125 290.3125 312.5 293.75 312.5 C 297.1875 312.5 300 315.3125 300 318.75 Z M 293.75 300 C 283.4375 300 275 308.4375 275 318.75 L 275 325 L 262.5 325 L 262.5 318.75 C 262.5 308.4375 254.0625 300 243.75 300 C 233.4375 300 225 308.4375 225 318.75 L 225 325 L 218.125 325 C 215 325 212.5 322.5 212.5 319.375 L 212.5 293.125 C 212.5 290 215 287.5 218.125 287.5 L 319.375 287.5 C 322.5 287.5 325 290 325 293.125 L 325 319.375 C 325 322.5 322.5 325 319.375 325 L 312.5 325 L 312.5 318.75 C 312.5 308.4375 304.0625 300 293.75 300 Z M 237.5 318.75 C 237.5 315.3125 240.3125 312.5 243.75 312.5 C 247.1875 312.5 250 315.3125 250 318.75 L 250 362.5 L 237.5 362.5 Z M 362.5 362.5 L 312.5 362.5 L 312.5 337.5 L 319.375 337.5 C 329.375 337.5 337.5 329.375 337.5 319.375 L 337.5 293.125 C 337.5 283.125 329.375 275 319.375 275 L 218.125 275 C 208.125 275 200 283.125 200 293.125 L 200 319.375 C 200 329.375 208.125 337.5 218.125 337.5 L 225 337.5 L 225 362.5 L 175 362.5 L 175 325 L 162.5 325 L 162.5 362.5 L 37.5 362.5 L 37.5 262.5 L 162.5 262.5 L 162.5 312.5 L 175 312.5 L 175 212.5 L 362.5 212.5 Z M 362.5 362.5 " fill-opacity="1" fill-rule="nonzero"/><path fill="#d66e36" d="M 231.25 262.5 L 256.25 262.5 C 259.6875 262.5 262.5 259.6875 262.5 256.25 L 262.5 231.25 C 262.5 227.8125 259.6875 225 256.25 225 L 231.25 225 C 227.8125 225 225 227.8125 225 231.25 L 225 256.25 C 225 259.6875 227.8125 262.5 231.25 262.5 Z M 237.5 237.5 L 250 237.5 L 250 250 L 237.5 250 Z M 237.5 237.5 " fill-opacity="1" fill-rule="nonzero"/><path fill="#d66e36" d="M 281.25 262.5 L 306.25 262.5 C 309.6875 262.5 312.5 259.6875 312.5 256.25 L 312.5 231.25 C 312.5 227.8125 309.6875 225 306.25 225 L 281.25 225 C 277.8125 225 275 227.8125 275 231.25 L 275 256.25 C 275 259.6875 277.8125 262.5 281.25 262.5 Z M 287.5 237.5 L 300 237.5 L 300 250 L 287.5 250 Z M 287.5 237.5 " fill-opacity="1" fill-rule="nonzero"/><path fill="#d66e36" d="M 87.5 281.25 L 62.5 281.25 C 59.0625 281.25 56.25 284.0625 56.25 287.5 L 56.25 337.5 C 56.25 340.9375 59.0625 343.75 62.5 343.75 L 87.5 343.75 C 90.9375 343.75 93.75 340.9375 93.75 337.5 L 93.75 287.5 C 93.75 284.0625 90.9375 281.25 87.5 281.25 Z M 81.25 331.25 L 68.75 331.25 L 68.75 293.75 L 81.25 293.75 Z M 81.25 331.25 " fill-opacity="1" fill-rule="nonzero"/><path fill="#d66e36" d="M 137.5 281.25 L 112.5 281.25 C 109.0625 281.25 106.25 284.0625 106.25 287.5 L 106.25 337.5 C 106.25 340.9375 109.0625 343.75 112.5 343.75 L 137.5 343.75 C 140.9375 343.75 143.75 340.9375 143.75 337.5 L 143.75 287.5 C 143.75 284.0625 140.9375 281.25 137.5 281.25 Z M 131.25 331.25 L 118.75 331.25 L 118.75 293.75 L 131.25 293.75 Z M 131.25 331.25 " fill-opacity="1" fill-rule="nonzero"/><path fill="#d66e36" d="M 93.75 31.25 L 106.25 31.25 L 106.25 43.75 L 93.75 43.75 Z M 93.75 31.25 " fill-opacity="1" fill-rule="nonzero"/></svg>