<svg xmlns="http://www.w3.org/2000/svg" xmlns:xlink="http://www.w3.org/1999/xlink" width="1024" zoomAndPan="magnify" viewBox="0 0 768 767.999994" height="1024" preserveAspectRatio="xMidYMid meet" version="1.0"><path fill="#1b98e0" d="M 371.011719 72.699219 C 368.230469 73.761719 359.457031 79.054688 351.542969 84.449219 C 340.144531 92.210938 334.957031 93.761719 326.695312 92.046875 C 289.652344 84.230469 275.898438 86.613281 259.289062 103.75 C 254.074219 109.128906 247.070312 113.242188 243.117188 113.242188 C 232.671875 113.242188 223.804688 121.230469 223.804688 130.644531 C 223.804688 143.0625 277.941406 225.4375 277.941406 239.5 C 277.941406 240.890625 266.222656 249.636719 251.984375 258.902344 C 197.527344 294.257812 149.9375 356.117188 136.171875 409.421875 C 129.882812 433.792969 129.261719 476.171875 134.84375 500.558594 C 166.90625 640.546875 378.796875 691.242188 508.089844 637.9375 C 570.765625 612.074219 621.457031 554.980469 633.769531 496.476562 C 639.011719 471.476562 636.101562 432.25 627.253906 408.824219 C 601.492188 340.53125 531.6875 278.355469 475.78125 233.804688 C 479.925781 209.386719 486.070312 169.738281 495.679688 136.660156 C 505.621094 102.507812 505.691406 99.964844 496.984375 88.871094 C 490.058594 80.054688 489.875 80.023438 457.898438 82.074219 C 429.71875 83.875 423.933594 83.285156 410.882812 77.246094 C 386.011719 65.726562 371.34375 72.699219 371.011719 72.699219 Z M 464.085938 117.953125 C 464.085938 123.332031 447.554688 180.886719 445.40625 182.972656 C 439.191406 189.050781 296.5 196.355469 295.039062 196.433594 L 265.59375 142.015625 C 294.324219 117.761719 291.390625 116.9375 313.394531 125.289062 C 340.277344 135.488281 355.324219 122.960938 384.941406 104.039062 C 405.300781 112.996094 412.589844 117.667969 440.0625 117.667969 C 440.355469 117.667969 464.085938 117.652344 464.085938 117.953125 Z M 440.976562 224.289062 C 440.976562 230.265625 427.359375 232.171875 365 234.96875 C 322.890625 236.855469 313.199219 236.441406 310.863281 232.640625 C 308.527344 228.835938 317.511719 227.421875 363.734375 224.34375 C 444.140625 218.988281 440.976562 218.988281 440.976562 224.257812 Z M 600.382812 485.6875 C 589.511719 542.679688 540.695312 591.671875 472.316406 614.242188 C 448.695312 622.042969 440.339844 623.035156 397.605469 623.144531 C 339.671875 623.292969 306.820312 616.226562 259.265625 593.386719 C 192.785156 561.449219 161.304688 511.742188 165.964844 446.136719 C 169.847656 390.757812 200.519531 339.367188 255.5 295.917969 C 290.15625 268.535156 297.609375 266.363281 358.390625 265.875 C 388.148438 265.640625 421.503906 264.429688 432.46875 263.179688 C 455.085938 260.613281 453.046875 259.640625 490.082031 290.625 C 490.386719 290.625 619.117188 387.589844 600.382812 485.6875 Z M 600.382812 485.6875 " fill-opacity="1" fill-rule="nonzero"/><path fill="#1b98e0" d="M 351.070312 320.53125 C 351.070312 330.929688 349.804688 332.40625 336.503906 337.464844 C 318.148438 344.453125 298.796875 362.886719 295.148438 376.855469 C 288.828125 401.109375 304.535156 425.933594 334.289062 438.722656 L 350.121094 445.492188 C 350.75 450.921875 355.378906 485.804688 352.972656 488.179688 C 351.910156 489.242188 343.785156 489.730469 334.609375 489.289062 C 320.042969 488.589844 317.527344 489.46875 312.601562 496.878906 C 307.585938 504.476562 307.554688 506.03125 312.292969 513.34375 C 322.898438 529.734375 352.5625 518.152344 356.550781 534.066406 C 360.566406 550.203125 382.363281 552.296875 386.230469 536.914062 C 387.78125 530.703125 390.988281 528.917969 403.652344 527.15625 C 458.417969 519.542969 483.628906 491.640625 464.21875 460.019531 C 450.800781 438.109375 408.769531 426.523438 384.335938 418.566406 L 384.335938 362.597656 L 393.511719 362.683594 C 405.859375 362.800781 427.414062 373.214844 437.195312 383.792969 C 450.195312 397.859375 464.109375 393.605469 464.109375 375.566406 C 464.109375 358.492188 438.152344 339.664062 403.957031 331.972656 C 384.015625 327.476562 381.167969 325.054688 381.167969 312.566406 C 381.167969 291.859375 359.347656 293.449219 354.433594 302.757812 C 354.757812 302.789062 351.070312 308.234375 351.070312 320.53125 Z M 351.070312 409.789062 C 335.066406 400.472656 319.351562 393.488281 334.679688 377.1875 C 347.234375 363.855469 351.070312 366.742188 351.070312 389.53125 Z M 434.324219 478.773438 C 434.324219 484.089844 413.4375 492.066406 399.507812 492.066406 C 382.96875 492.066406 390.515625 489.738281 385.578125 465.800781 C 383.488281 455.671875 383.820312 455.175781 391.277344 457.414062 C 396.507812 458.933594 434.324219 473.347656 434.324219 478.726562 Z M 434.324219 478.773438 " fill-opacity="1" fill-rule="nonzero"/><path fill="#1b98e0" d="M 522.757812 428.726562 C 528.789062 448.292969 525.707031 463.535156 509.175781 495.816406 C 492.644531 528.097656 491.644531 535.570312 503.027344 541.445312 C 514.984375 547.65625 522.980469 539.800781 540.625 504.671875 C 557.308594 471.445312 557.761719 469.839844 556.628906 446.761719 C 555.011719 413.855469 540.917969 399.417969 525.5 414.808594 C 526.492188 414.808594 519.261719 417.441406 522.757812 428.726562 Z M 522.757812 428.726562 " fill-opacity="1" fill-rule="nonzero"/><path fill="#1b98e0" d="M 213.453125 429.679688 C 206.117188 440.121094 206.109375 496.328125 213.453125 503.726562 C 220.1875 510.5 229.28125 510.371094 235.046875 503.40625 C 240.367188 496.988281 242.316406 437.589844 237.527344 428.121094 C 233.386719 419.941406 219.667969 420.839844 213.453125 429.671875 Z M 213.453125 429.679688 " fill-opacity="1" fill-rule="nonzero"/></svg>