<svg xmlns="http://www.w3.org/2000/svg" xmlns:xlink="http://www.w3.org/1999/xlink" width="1024" zoomAndPan="magnify" viewBox="0 0 768 767.999994" height="1024" preserveAspectRatio="xMidYMid meet" version="1.0"><path fill="#1b98e0" d="M 359.875 83.835938 C 348.804688 90.433594 348.714844 91.070312 352.929688 137.902344 C 355.683594 168.75 360.152344 178 372.226562 178 C 384.300781 178 385.679688 172.949219 385.679688 130.328125 C 385.679688 93.59375 385.117188 89.117188 379.796875 83.90625 C 372.570312 76.828125 371.667969 76.828125 359.890625 83.835938 Z M 359.875 83.835938 " fill-opacity="1" fill-rule="nonzero"/><path fill="#1b98e0" d="M 219.996094 136.265625 C 217.277344 136.84375 214.082031 140.707031 213.070312 144.628906 C 211.1875 151.945312 224.328125 174.070312 250.886719 208.28125 C 261.550781 222.035156 275.441406 224.003906 278.390625 212.207031 C 280.824219 202.386719 280.824219 202.386719 257.359375 169.304688 C 233.699219 136.015625 229.917969 136.265625 219.996094 136.265625 Z M 219.996094 136.265625 " fill-opacity="1" fill-rule="nonzero"/><path fill="#1b98e0" d="M 549.648438 142.105469 C 535.015625 157.8125 491.628906 220.082031 491.628906 225.386719 C 491.628906 233.242188 502.878906 240.421875 509.574219 236.84375 C 515.867188 233.488281 570.273438 162.566406 573.863281 153.046875 C 576.828125 145.191406 570.007812 133.972656 562.273438 133.972656 C 557.210938 133.972656 549.945312 142.105469 549.648438 142.105469 Z M 549.648438 142.105469 " fill-opacity="1" fill-rule="nonzero"/><path fill="#1b98e0" d="M 341.378906 221.996094 C 296.246094 236.617188 264.976562 263.394531 244.742188 304.742188 C 224.636719 345.808594 221.636719 391.667969 235.355469 448.609375 C 244.597656 487.027344 271.226562 538.542969 290.9375 556.144531 C 296.714844 561.292969 297.300781 564.398438 296.570312 586.011719 C 295.648438 613.207031 299.371094 620.800781 315.328125 624.273438 C 323.371094 626.027344 323.738281 626.8125 323.738281 642.230469 C 323.738281 651.171875 325.675781 662.085938 328.101562 666.765625 C 334.292969 678.703125 356.253906 688.566406 379.800781 689.992188 C 398.304688 691.113281 399.550781 690.761719 408.398438 681.910156 C 417.335938 672.96875 426.894531 649.382812 426.894531 636.199219 C 426.894531 631.851562 430.539062 628.296875 439.230469 624.148438 C 458.097656 615.148438 463.488281 605.636719 463.984375 580.402344 C 464.375 561.894531 465.730469 557.085938 475.273438 540.304688 C 516.746094 467.398438 530.238281 426.636719 530.03125 374.867188 C 529.707031 293.667969 486.492188 239.710938 429.382812 221.960938 C 405.839844 214.644531 364.027344 214.671875 341.375 222.015625 Z M 433.605469 255.695312 C 487.464844 280.351562 512.917969 350.753906 494.53125 424.199219 C 488.640625 447.75 450.566406 527.917969 437.578125 544.210938 C 430.097656 553.570312 431.515625 552.386719 390.433594 548.136719 C 391.808594 514.292969 393.574219 423.113281 410.335938 390.546875 C 414.375 382.714844 416.785156 381.289062 426.035156 381.289062 C 456.289062 381.289062 471.511719 348.152344 447.0625 335.464844 C 428.800781 325.988281 405.648438 338.113281 389.53125 365.589844 C 382.785156 377.089844 376.703125 380.28125 376.703125 372.324219 C 376.703125 366.132812 360.722656 345.652344 351.46875 339.957031 C 339.132812 332.390625 319.460938 331.785156 311.664062 338.792969 C 304.644531 345.105469 304.222656 356.894531 310.6875 366.152344 C 314.902344 372.179688 317.5625 372.960938 329.601562 371.757812 C 343.355469 370.382812 343.746094 370.574219 349.777344 381.289062 C 366.621094 411.230469 364.902344 438.960938 364.902344 548.976562 L 322.59375 548.976562 L 310.300781 535.800781 C 285.546875 509.222656 264.089844 458.121094 258.203125 411.582031 C 249.871094 345.683594 276.046875 287.726562 326.234375 260.957031 C 349.609375 248.503906 362.117188 245.828125 391.828125 247.058594 C 420.859375 248.253906 433.902344 255.667969 433.605469 255.667969 Z M 435.441406 580.378906 C 436.128906 581 435.441406 585.148438 433.902344 589.636719 L 431.09375 597.765625 L 325.117188 597.765625 L 323.433594 575.332031 L 378.796875 577.300781 C 430.078125 579.113281 436.484375 580.378906 435.441406 580.378906 Z M 392.96875 653.972656 C 388.714844 663.953125 387.921875 664.386719 377.554688 662.480469 C 360.171875 659.28125 350.359375 652.925781 350.359375 644.859375 C 350.359375 630.042969 352.601562 628.601562 375.59375 628.601562 C 396.910156 628.601562 397.460938 628.785156 397.460938 636.027344 C 397.832031 636.042969 396.65625 645.3125 392.957031 653.984375 Z M 392.96875 653.972656 " fill-opacity="1" fill-rule="nonzero"/><path fill="#1b98e0" d="M 105.339844 244.339844 C 102.550781 250.53125 102.878906 252.773438 107.308594 257.664062 C 113.902344 264.953125 174.125 298.882812 180.472656 298.882812 C 188.035156 298.882812 194.28125 287.382812 190.785156 279.816406 C 187.292969 272.25 124.929688 236.914062 115.152344 236.914062 C 107.734375 236.886719 105.652344 244.339844 105.339844 244.339844 Z M 105.339844 244.339844 " fill-opacity="1" fill-rule="nonzero"/><path fill="#1b98e0" d="M 572.6875 299.695312 C 570.433594 303.339844 570.441406 306.144531 572.6875 309.789062 C 579.226562 320.257812 590.003906 317.609375 629.804688 295.738281 C 673.253906 271.871094 680.550781 264.066406 668.488281 254.320312 C 664.570312 251.152344 660.5625 248.660156 659.378906 248.660156 C 655.542969 248.660156 578.828125 289.796875 572.6875 299.695312 Z M 572.6875 299.695312 " fill-opacity="1" fill-rule="nonzero"/><path fill="#1b98e0" d="M 81.515625 366.945312 C 74.269531 371.070312 75.066406 383.242188 82.890625 388.328125 C 88.921875 392.234375 147.371094 404.832031 159.425781 404.832031 C 165.3125 404.832031 173.722656 397.269531 173.722656 391.9375 C 173.722656 381.957031 165.59375 378.355469 126.628906 371.0625 C 104.785156 366.984375 86.839844 363.691406 86.839844 363.765625 C 86.839844 363.84375 84.316406 365.347656 81.515625 366.945312 Z M 81.515625 366.945312 " fill-opacity="1" fill-rule="nonzero"/><path fill="#1b98e0" d="M 585.683594 392.902344 C 580.003906 394.277344 578.039062 396.972656 577.34375 404.261719 C 576.113281 417.199219 580.78125 418.5 637.960938 421.132812 L 685.617188 423.328125 C 691.660156 409.792969 693.449219 408.464844 686.882812 401.738281 C 681.980469 396.71875 675.949219 395.617188 645.949219 394.304688 C 600.019531 392.289062 594.890625 390.644531 585.683594 392.929688 Z M 585.683594 392.902344 " fill-opacity="1" fill-rule="nonzero"/><path fill="#1b98e0" d="M 136.734375 500.824219 C 99.171875 508.988281 91.789062 514.429688 101.070312 527.105469 C 106.035156 533.886719 115.152344 533.671875 156.078125 525.804688 C 188.3125 519.617188 198.898438 513.324219 194.972656 502.710938 C 190.703125 491.164062 182.425781 490.894531 136.730469 500.824219 Z M 136.734375 500.824219 " fill-opacity="1" fill-rule="nonzero"/><path fill="#1b98e0" d="M 552.707031 524.582031 C 555.738281 529.328125 629.550781 555.40625 636.839844 554.308594 C 639.898438 553.847656 644.320312 550.660156 646.5625 547.292969 C 653.3125 537.160156 644.128906 530.097656 606.847656 516.863281 C 570.125 503.796875 561.8125 502.605469 554.984375 509.4375 C 556.796875 509.4375 546.019531 514.101562 552.707031 524.582031 Z M 552.707031 524.582031 " fill-opacity="1" fill-rule="nonzero"/></svg>