<svg xmlns="http://www.w3.org/2000/svg" xmlns:xlink="http://www.w3.org/1999/xlink" width="500" zoomAndPan="magnify" viewBox="0 0 375 374.999991" height="500" preserveAspectRatio="xMidYMid meet" version="1.0"><defs><clipPath id="2e95610eb3"><path d="M 67 336 L 308 336 L 308 365.863281 L 67 365.863281 Z M 67 336 " clip-rule="nonzero"/></clipPath><clipPath id="eca4fa0f1a"><path d="M 0 8.863281 L 375 8.863281 L 375 325 L 0 325 Z M 0 8.863281 " clip-rule="nonzero"/></clipPath></defs><g clip-path="url(#2e95610eb3)"><path fill="#d66e36" d="M 307.03125 360.675781 C 307.03125 363.605469 304.101562 366.539062 301.171875 366.539062 L 73.828125 366.539062 C 70.3125 366.539062 67.96875 363.605469 67.96875 360.675781 C 67.96875 357.15625 70.3125 354.808594 73.828125 354.808594 L 125.976562 354.808594 L 125.976562 336.628906 L 249.609375 336.628906 L 249.609375 354.808594 L 301.757812 354.808594 C 304.6875 354.808594 307.03125 357.15625 307.03125 360.675781 Z M 307.03125 360.675781 " fill-opacity="1" fill-rule="nonzero"/></g><g clip-path="url(#eca4fa0f1a)"><path fill="#d66e36" d="M 348.046875 8.789062 L 26.953125 8.789062 C 12.304688 8.789062 0 21.105469 0 35.765625 L 0 297.335938 C 0 311.996094 12.304688 324.3125 26.953125 324.3125 L 348.046875 324.3125 C 362.695312 324.3125 375 311.996094 375 297.335938 L 375 35.765625 C 375 21.105469 362.695312 8.789062 348.046875 8.789062 Z M 363.28125 249.832031 L 11.71875 249.832031 L 11.71875 35.765625 C 11.71875 27.554688 18.75 20.519531 26.953125 20.519531 L 348.046875 20.519531 C 356.25 20.519531 363.28125 27.554688 363.28125 35.765625 Z M 363.28125 249.832031 " fill-opacity="1" fill-rule="nonzero"/></g><path fill="#d66e36" d="M 309.375 90.308594 C 311.132812 86.203125 308.203125 82.097656 304.101562 82.097656 L 112.5 82.097656 L 106.054688 58.054688 C 105.46875 55.707031 103.125 53.949219 100.195312 53.949219 L 71.484375 53.949219 C 67.96875 53.949219 65.625 56.292969 65.625 59.8125 C 65.625 63.332031 67.96875 65.675781 71.484375 65.675781 L 96.09375 65.675781 L 128.320312 185.90625 C 128.90625 188.25 131.25 190.011719 134.179688 190.011719 L 265.429688 190.011719 C 267.773438 190.011719 270.117188 188.835938 270.703125 186.492188 C 284.765625 150.714844 294.726562 126.085938 309.375 90.308594 Z M 123.632812 124.910156 L 152.34375 124.910156 L 154.6875 147.195312 L 129.492188 147.195312 Z M 164.0625 124.910156 L 195.703125 124.910156 L 195.703125 147.195312 L 166.992188 147.195312 Z M 195.703125 113.183594 L 162.890625 113.183594 L 160.546875 93.828125 L 195.703125 93.828125 Z M 207.421875 93.828125 L 247.265625 93.828125 L 243.75 112.59375 L 207.421875 112.59375 Z M 195.703125 158.925781 L 195.703125 178.28125 L 169.921875 178.28125 L 167.578125 158.925781 Z M 207.421875 158.925781 L 234.375 158.925781 L 230.859375 178.28125 L 207.421875 178.28125 Z M 207.421875 147.195312 L 207.421875 124.910156 L 241.40625 124.910156 L 237.304688 147.195312 Z M 253.125 124.910156 L 282.421875 124.910156 L 273.632812 147.195312 L 249.023438 147.195312 Z M 287.109375 113.183594 L 254.882812 113.183594 L 258.398438 94.414062 L 294.726562 94.414062 Z M 148.828125 93.828125 L 151.171875 112.59375 L 120.703125 112.59375 L 115.429688 93.828125 Z M 133.007812 158.925781 L 156.445312 158.925781 L 158.789062 178.28125 L 138.28125 178.28125 Z M 260.742188 178.28125 L 242.578125 178.28125 L 246.09375 158.925781 L 268.359375 158.925781 Z M 260.742188 178.28125 " fill-opacity="1" fill-rule="nonzero"/><path fill="#d66e36" d="M 254.882812 212.882812 C 254.882812 224.027344 246.09375 232.824219 234.960938 232.824219 C 224.414062 232.824219 215.625 224.027344 215.625 212.882812 C 215.625 201.738281 224.414062 192.941406 234.960938 192.941406 C 246.09375 193.527344 254.882812 202.324219 254.882812 212.882812 Z M 254.882812 212.882812 " fill-opacity="1" fill-rule="nonzero"/><path fill="#d66e36" d="M 181.640625 212.882812 C 181.640625 224.027344 172.851562 232.824219 161.71875 232.824219 C 151.171875 232.824219 141.796875 224.027344 141.796875 212.882812 C 141.796875 201.738281 150.585938 192.941406 161.71875 192.941406 C 172.851562 193.527344 181.640625 202.324219 181.640625 212.882812 Z M 181.640625 212.882812 " fill-opacity="1" fill-rule="nonzero"/></svg>