<svg xmlns="http://www.w3.org/2000/svg" xmlns:xlink="http://www.w3.org/1999/xlink" width="500" zoomAndPan="magnify" viewBox="0 0 375 374.999991" height="500" preserveAspectRatio="xMidYMid meet" version="1.0"><defs><clipPath id="6a21051884"><path d="M 0 0.0703125 L 374.628906 0.0703125 L 374.628906 375 L 0 375 Z M 0 0.0703125 " clip-rule="nonzero"/></clipPath></defs><g clip-path="url(#6a21051884)"><path fill="#d66e36" d="M 374.191406 114.621094 L 322.722656 4.351562 C 321.515625 1.765625 318.914062 0.109375 316.058594 0.109375 C 304.199219 0.109375 70.566406 0.109375 58.707031 0.109375 C 55.847656 0.109375 53.25 1.765625 52.042969 4.351562 C -3.511719 123.386719 0.140625 115.375 -0.046875 116.769531 C -0.15625 117.613281 -0.101562 292.589844 -0.117188 367.679688 C -0.117188 371.738281 3.175781 375.027344 7.234375 375.027344 L 367.53125 375.027344 C 371.589844 375.027344 374.882812 371.738281 374.882812 367.679688 C 374.824219 100.210938 375.207031 116.785156 374.191406 114.621094 Z M 311.375 14.8125 L 355.984375 110.378906 L 234.261719 110.378906 L 221.515625 14.8125 Z M 63.386719 14.8125 L 153.25 14.8125 L 140.503906 110.378906 L 18.78125 110.378906 Z M 360.175781 360.328125 L 14.589844 360.328125 L 14.589844 125.082031 L 139.589844 125.082031 L 139.589844 205.949219 C 139.589844 211.523438 145.574219 215.070312 150.460938 212.402344 L 187.382812 192.265625 L 224.304688 212.402344 C 229.214844 215.078125 235.175781 211.503906 235.175781 205.949219 L 235.175781 125.082031 L 360.175781 125.082031 Z M 360.175781 360.328125 " fill-opacity="1" fill-rule="nonzero"/></g><path fill="#d66e36" d="M 249.882812 345.625 L 338.117188 345.625 C 342.179688 345.625 345.46875 342.332031 345.46875 338.273438 L 345.46875 235.351562 C 345.46875 231.292969 342.179688 228.003906 338.117188 228.003906 L 249.882812 228.003906 C 245.820312 228.003906 242.53125 231.292969 242.53125 235.351562 L 242.53125 338.273438 C 242.53125 342.332031 245.820312 345.625 249.882812 345.625 Z M 279.292969 264.757812 L 308.707031 264.757812 C 312.765625 264.757812 316.058594 268.050781 316.058594 272.109375 C 316.058594 276.167969 312.765625 279.460938 308.707031 279.460938 L 279.292969 279.460938 C 275.234375 279.460938 271.941406 276.167969 271.941406 272.109375 C 271.941406 268.050781 275.234375 264.757812 279.292969 264.757812 Z M 279.292969 294.164062 L 308.707031 294.164062 C 312.765625 294.164062 316.058594 297.457031 316.058594 301.515625 C 316.058594 305.574219 312.765625 308.867188 308.707031 308.867188 L 279.292969 308.867188 C 275.234375 308.867188 271.941406 305.574219 271.941406 301.515625 C 271.941406 297.457031 275.234375 294.164062 279.292969 294.164062 Z M 279.292969 294.164062 " fill-opacity="1" fill-rule="nonzero"/><path fill="#d66e36" d="M 41.847656 269.957031 L 51.351562 260.453125 L 51.351562 308.867188 C 51.351562 312.925781 54.644531 316.21875 58.707031 316.21875 C 62.765625 316.21875 66.058594 312.925781 66.058594 308.867188 L 66.058594 260.453125 L 75.566406 269.957031 C 78.4375 272.828125 83.089844 272.828125 85.964844 269.957031 C 88.835938 267.085938 88.835938 262.433594 85.964844 259.5625 L 63.90625 237.507812 C 61.042969 234.644531 56.375 234.640625 53.507812 237.507812 L 31.449219 259.5625 C 28.578125 262.429688 28.578125 267.085938 31.449219 269.957031 C 34.320312 272.828125 38.972656 272.828125 41.847656 269.957031 Z M 41.847656 269.957031 " fill-opacity="1" fill-rule="nonzero"/><path fill="#d66e36" d="M 137.433594 237.507812 C 134.546875 234.621094 129.875 234.667969 127.035156 237.507812 L 104.976562 259.5625 C 102.105469 262.429688 102.105469 267.085938 104.976562 269.957031 C 107.847656 272.828125 112.503906 272.828125 115.375 269.957031 L 124.882812 260.453125 L 124.882812 308.867188 C 124.882812 312.925781 128.175781 316.21875 132.234375 316.21875 C 136.296875 316.21875 139.589844 312.925781 139.589844 308.867188 L 139.589844 260.453125 L 149.09375 269.957031 C 151.96875 272.828125 156.621094 272.828125 159.492188 269.957031 C 162.367188 267.085938 162.367188 262.433594 159.492188 259.5625 Z M 137.433594 237.507812 " fill-opacity="1" fill-rule="nonzero"/><path fill="#d66e36" d="M 154.292969 330.921875 L 36.648438 330.921875 C 32.585938 330.921875 29.292969 334.214844 29.292969 338.273438 C 29.292969 342.332031 32.585938 345.625 36.648438 345.625 L 154.292969 345.625 C 158.355469 345.625 161.648438 342.332031 161.648438 338.273438 C 161.648438 334.214844 158.355469 330.921875 154.292969 330.921875 Z M 154.292969 330.921875 " fill-opacity="1" fill-rule="nonzero"/></svg>