<svg xmlns="http://www.w3.org/2000/svg" xmlns:xlink="http://www.w3.org/1999/xlink" width="500" zoomAndPan="magnify" viewBox="0 0 375 374.999991" height="500" preserveAspectRatio="xMidYMid meet" version="1.0"><path fill="#d66e36" d="M 168.042969 3.117188 C 157.605469 6.878906 144.164062 16.023438 136.847656 24.351562 C 133.730469 27.898438 128.796875 35.839844 125.839844 42.113281 C 121.527344 51.214844 119.144531 54.222656 113.765625 57.339844 C 104.816406 62.527344 96.207031 72.292969 94.195312 79.570312 C 91.886719 87.875 92.101562 104.496094 94.648438 114.199219 C 99.566406 132.9375 90.183594 150.398438 102.289062 164.195312 C 109.085938 171.9375 114.664062 174.3125 128.386719 175.285156 C 139.726562 176.09375 140.671875 176.464844 147.472656 182.800781 C 167.121094 201.101562 191.472656 203.746094 212.800781 189.941406 C 231.09375 178.109375 236.304688 161.957031 242.035156 142.71875 C 268.375 133.808594 274.261719 133.316406 274.113281 104.0625 C 273.996094 81.226562 268.535156 69.652344 254.726562 63.019531 C 247.347656 59.472656 246.886719 58.691406 245.277344 47.050781 C 243.835938 36.734375 236.089844 21.996094 228.449219 15.058594 C 217.863281 5.445312 206.828125 1.269531 190.425781 0.679688 C 171.902344 0.0117188 169.539062 3.117188 168.042969 3.117188 Z M 202.949219 18.453125 C 219.410156 24.050781 230.386719 40.910156 230.386719 60.613281 C 230.386719 73.597656 228.300781 74.644531 202.347656 74.644531 C 178.78125 74.644531 166.167969 72.03125 146.417969 63.058594 C 134.089844 57.460938 133.84375 55.988281 142.941406 42.40625 C 157.867188 20.167969 180.914062 10.964844 202.949219 18.453125 Z M 119.871094 116.136719 C 113.40625 116.214844 108.238281 118.355469 108.238281 95.535156 C 108.238281 83.597656 109.703125 79.511719 115.84375 74.25 C 121.675781 69.257812 122.484375 69.71875 121.242188 77.328125 C 121.507812 77.328125 120.257812 74.410156 119.871094 116.136719 Z M 146.421875 79.347656 C 174.308594 91.683594 192.5625 90.226562 225.46875 90.332031 C 226.40625 96.429688 227.683594 101.078125 226.753906 122.269531 C 225.449219 152.121094 217.441406 169.085938 200.558594 177.800781 C 188.925781 183.800781 176.089844 183.382812 165.960938 176.667969 L 159.097656 172.117188 C 163.679688 170.195312 167.675781 167.984375 172.074219 169.652344 C 190.3125 176.582031 210.203125 156.515625 195.363281 140.328125 C 184.84375 128.859375 168.289062 132.566406 162.730469 147.648438 C 160.691406 153.171875 159.125 154.972656 155.367188 156.035156 C 148.394531 158.042969 146.488281 156.605469 142.664062 146.457031 C 131.125 115.828125 135.074219 75.386719 137.015625 75.386719 C 137.347656 75.386719 146.578125 79.347656 146.421875 79.347656 Z M 252.914062 122.285156 C 246.050781 125.390625 244.394531 124.605469 244.324219 118.222656 C 244.125 99.527344 240.132812 87.105469 244.214844 80.015625 C 247.1875 74.839844 250.75 75.988281 255.339844 83.597656 C 257.511719 83.597656 265.328125 116.664062 252.914062 122.285156 Z M 125.015625 143.21875 C 126.84375 149.492188 128.875 155.984375 129.488281 157.625 C 130.5 160.320312 130.011719 160.511719 124.496094 159.625 C 116.195312 158.285156 111.519531 153.148438 110.308594 144.042969 C 108.980469 134.042969 110.105469 131.804688 116.441406 131.804688 C 121.5625 131.804688 121.726562 132.03125 125.015625 143.21875 Z M 184.222656 150.90625 C 185.683594 153.292969 180.199219 157.53125 178.1875 155.535156 C 176.179688 153.539062 178.039062 149.117188 180.875 149.117188 C 182.742188 149.117188 184.433594 150.90625 184.207031 150.90625 Z M 184.222656 150.90625 " fill-opacity="1" fill-rule="nonzero"/><path fill="#d66e36" d="M 213.332031 202.097656 C 212.460938 208.285156 215.625 210.152344 226.960938 210.195312 C 289.519531 210.359375 301.589844 274.457031 308.003906 336.71875 C 309.207031 348.414062 310.78125 347.421875 281.25 353.632812 C 258.570312 358.390625 253.8125 360.585938 253.8125 366.121094 C 253.8125 374.910156 258.4375 375.027344 292.296875 367.003906 C 314.371094 361.777344 321.929688 358.273438 324.234375 352.242188 C 326.953125 345.089844 318.582031 284.035156 312.285156 265.082031 C 299.925781 227.914062 278.480469 204.585938 250.675781 198.0625 C 237.847656 195.046875 221.964844 194.300781 217.714844 196.503906 C 217.863281 196.503906 213.816406 198.628906 213.332031 202.097656 Z M 213.332031 202.097656 " fill-opacity="1" fill-rule="nonzero"/><path fill="#d66e36" d="M 101.820312 202.152344 C 81.269531 207.511719 66.835938 220.15625 56.402344 241.949219 C 43.839844 268.179688 37.558594 308.082031 40.363281 343.734375 C 42.3125 368.507812 42.3125 368.507812 64.984375 368.507812 C 83.480469 368.507812 86.3125 367.570312 86.3125 361.417969 C 86.3125 355.734375 83.179688 354.332031 70.503906 354.332031 C 60.957031 354.332031 58.214844 353.796875 57.4375 351.796875 C 55.539062 346.902344 56.519531 304.78125 58.871094 290.296875 C 62.089844 270.449219 69.789062 247.902344 76.703125 238.0625 C 89.089844 220.472656 102.261719 214.558594 129.699219 214.335938 C 144.914062 214.207031 147.679688 213.785156 149.054688 211.351562 C 151.414062 207.195312 149.238281 202.84375 143.871094 200.980469 C 136.648438 198.472656 113.445312 199.117188 101.800781 202.152344 Z M 101.820312 202.152344 " fill-opacity="1" fill-rule="nonzero"/><path fill="#d66e36" d="M 135.382812 222.886719 C 98.542969 225.015625 88.921875 228.972656 86.179688 243.140625 C 84.378906 252.4375 84.671875 331.058594 84.671875 330.898438 C 69.671875 330.898438 66.359375 330.425781 63.734375 334.195312 C 60.882812 338.28125 62.152344 343.03125 66.476562 344.445312 C 69.800781 345.542969 283.414062 346.664062 290.945312 343.550781 C 301.890625 339.027344 296.464844 327.765625 283.339844 327.765625 C 280.707031 327.765625 280.496094 326.121094 280.414062 304.628906 C 280.277344 270.585938 278.117188 250.234375 273.742188 241.648438 C 266.933594 228.304688 256.496094 225.203125 210.257812 222.757812 C 159.929688 220.097656 142.742188 222.886719 135.382812 222.886719 Z M 249.777344 243.289062 C 261.121094 246.121094 261.8125 248.511719 263.679688 290.597656 C 264.65625 312.386719 264.726562 326.792969 263.859375 327.613281 C 261.96875 329.40625 100.011719 330.148438 100.167969 330.148438 C 100.222656 316.238281 100.21875 255.277344 101.417969 249.25 C 102.652344 243.078125 105.390625 241.820312 121.050781 240.195312 C 142.324219 238.007812 225.546875 237.230469 249.777344 243.289062 Z M 249.777344 243.289062 " fill-opacity="1" fill-rule="nonzero"/><path fill="#d66e36" d="M 174.757812 267.019531 C 168.476562 273.304688 167.746094 274.769531 167.746094 281.359375 C 167.746094 287.480469 168.570312 289.574219 172.816406 294.195312 C 186.222656 308.796875 209.953125 301.359375 209.953125 282.554688 C 209.953125 269.765625 203.089844 262.503906 189.519531 260.921875 C 181.914062 260.035156 181.628906 260.152344 174.753906 267.03125 Z M 193.988281 281.796875 C 194.644531 286.421875 188.777344 288.140625 184.753906 284.496094 C 182.363281 282.335938 182.140625 281.347656 183.632812 279.558594 C 186.386719 276.265625 193.414062 277.769531 193.988281 281.796875 Z M 193.988281 281.796875 " fill-opacity="1" fill-rule="nonzero"/></svg>