<svg xmlns="http://www.w3.org/2000/svg" xmlns:xlink="http://www.w3.org/1999/xlink" width="1024" zoomAndPan="magnify" viewBox="0 0 768 767.999994" height="1024" preserveAspectRatio="xMidYMid meet" version="1.0"><path fill="#1b98e0" d="M 405.847656 83.15625 C 269.039062 92.921875 119.972656 108.664062 113.574219 113.933594 C 110.050781 116.859375 108.902344 121.121094 110.121094 126.714844 C 128.867188 212.515625 142.023438 378.148438 142.699219 536.960938 C 143.089844 627.398438 143.464844 632.523438 149.96875 641.394531 C 174.554688 674.816406 254.730469 676.089844 495.699219 646.875 C 567.835938 638.125 580.488281 634.335938 587.710938 619.328125 C 592.570312 609.21875 598.617188 525.160156 598.617188 467.664062 L 598.617188 424.144531 C 606.523438 417.597656 721.476562 324.070312 723.917969 314.898438 C 724.914062 311.171875 723.6875 304.714844 721.285156 301.070312 C 714.695312 291.0625 676.96875 258.890625 664.226562 252.40625 C 647.796875 244.058594 645.160156 248.402344 597.0625 290.519531 C 588.625 177.972656 590.746094 184.71875 575.027344 166.507812 C 558.136719 146.917969 502.160156 95.15625 489.171875 87.097656 C 472.578125 76.808594 409.667969 83.15625 405.847656 83.15625 Z M 454.066406 121.121094 C 453.199219 123.332031 449.871094 136.503906 446.730469 150.179688 C 441.941406 171 441.660156 176.859375 445.023438 185.140625 C 453.234375 205.324219 469.722656 202.542969 555.085938 197.886719 C 559.777344 235.359375 559.441406 242.578125 559.441406 322.515625 C 495.539062 381.507812 454.203125 423.496094 449.683594 423.496094 C 447.882812 423.496094 443.742188 426.296875 440.933594 429.40625 C 433.003906 438.242188 406.152344 513.03125 406.152344 526.410156 C 406.152344 540.710938 415.636719 550.964844 428.855469 550.964844 C 450.308594 550.964844 501.304688 524.753906 508.703125 509.9375 C 512.425781 502.480469 566.371094 452.351562 568.453125 454.417969 C 569.980469 455.902344 564.015625 566.035156 557.570312 604.730469 C 457.46875 617.421875 338.046875 634.191406 246.027344 632.074219 C 210.894531 631.265625 189.703125 629.382812 184.925781 626.636719 C 177.683594 622.484375 177.621094 621.828125 177.539062 548.476562 C 177.269531 319.59375 149.386719 168.191406 147.152344 144.738281 C 146.566406 138.636719 150.257812 137.875 206.851562 132.632812 C 478.402344 107.484375 454.402344 121.121094 454.066406 121.121094 Z M 525.863281 164.472656 C 525.152344 165.007812 494.105469 167.75 477.054688 169.289062 C 482.878906 145.15625 488.332031 125.449219 488.25 125.777344 C 496.300781 133.867188 527.164062 164.472656 525.863281 164.472656 Z M 677.898438 302.152344 C 687.980469 313.03125 659.167969 324.648438 539.863281 434.558594 C 519.019531 453.746094 501.394531 469.234375 500.367188 469.234375 C 497.949219 469.234375 478.851562 445.175781 476.421875 442.195312 C 530.46875 392.496094 529.09375 393.226562 655.828125 283.996094 C 661.800781 288.363281 670.976562 294.667969 677.898438 302.175781 Z M 441.910156 512.6875 C 441.910156 509.082031 456.042969 467.824219 455.90625 468.246094 C 459.253906 471.925781 478.488281 491.664062 476.0625 495.597656 C 480.285156 495.628906 441.910156 516.75 441.910156 512.6875 Z M 441.910156 512.6875 " fill-opacity="1" fill-rule="nonzero"/><path fill="#1b98e0" d="M 238.53125 157.808594 C 202.78125 162.695312 192.417969 167.636719 189.722656 181.097656 C 186.804688 195.710938 198.496094 281.921875 204.6875 291.433594 C 213.074219 304.347656 223.304688 304.898438 271.796875 295.085938 C 323.71875 284.574219 340.59375 276.691406 346.199219 260.355469 C 355.46875 233.316406 347.191406 173.117188 332.429688 160.171875 C 325.105469 153.761719 320.613281 152.863281 297.292969 153.128906 C 271.179688 153.433594 238.890625 157.808594 238.53125 157.808594 Z M 315.800781 242.640625 C 314.527344 247.585938 310.074219 251.613281 303.546875 253.714844 C 286.449219 259.234375 232.171875 270.648438 230.617188 269.054688 C 229.464844 267.878906 220.527344 207.519531 220.085938 197.886719 C 219.960938 195.230469 232.660156 192.648438 264.058594 188.933594 C 297.332031 185.003906 307.328125 184.988281 309.730469 188.875 C 311.851562 188.875 318.355469 232.652344 315.800781 242.640625 Z M 315.800781 242.640625 " fill-opacity="1" fill-rule="nonzero"/><path fill="#1b98e0" d="M 331.222656 332.457031 C 274.636719 341.199219 225.40625 349.105469 221.464844 350.078125 C 207.105469 353.632812 207.785156 373.125 222.394531 376.761719 C 234.519531 379.808594 454.699219 349.378906 463.988281 343.386719 C 472.074219 338.164062 473.8125 326.1875 467.40625 319.882812 C 456.179688 308.871094 342.84375 332.457031 331.222656 332.457031 Z M 331.222656 332.457031 " fill-opacity="1" fill-rule="nonzero"/><path fill="#1b98e0" d="M 243.230469 438.125 C 236.9375 444.414062 240.746094 458.617188 249.445312 461.375 C 259.085938 464.425781 340.734375 453.328125 349.5625 447.769531 C 358.890625 441.890625 358.890625 432.011719 349.5625 425.53125 C 340.960938 419.554688 340.238281 419.570312 288.621094 427.339844 C 288.949219 427.308594 247.9375 433.40625 243.230469 438.125 Z M 243.230469 438.125 " fill-opacity="1" fill-rule="nonzero"/><path fill="#1b98e0" d="M 275.566406 524 C 262.195312 524.632812 249.363281 526.765625 246.960938 528.75 C 241.675781 533.117188 241.621094 545.039062 246.875 550.324219 C 252.214844 555.734375 326.554688 555.515625 337.4375 550.046875 C 347.390625 545.0625 349.707031 534.304688 342.410156 527.019531 C 333.601562 518.207031 305.949219 524 275.566406 524 Z M 275.566406 524 " fill-opacity="1" fill-rule="nonzero"/></svg>